
<svg width="808px" height="344px" viewBox="0 0 808 344" version="1.1" xmlns="http://www.w3.org/2000/svg" xmlns:xlink="http://www.w3.org/1999/xlink">
    <g id="Page-1" stroke="none" stroke-width="1" fill="none" fill-rule="evenodd">
        <g id="SECO-Sticker" transform="translate(-20.000000, -104.000000)" fill-rule="nonzero">
            <g id="SECO_Logo_Dunkler-Hintergrund_CMYK-(2)" transform="translate(20.000000, 102.000000)">
                <g id="g10" transform="translate(404.554894, 173.871920) scale(-1, 1) rotate(-180.000000) translate(-404.554894, -173.871920) translate(0.054894, 0.871920)">
                    <g id="g3657" transform="translate(-0.000000, 0.000000)">
                        <g id="g3503" transform="translate(10.595745, 0.000000)" fill="#A7A5A6">
                            <polygon id="path14" points="17.5527234 13.045821 15.1242128 10.5983827 0.154851064 23.0731358 15.1242128 35.5534136 17.5527234 33.0838765 5.41570213 23.1173333"></polygon>
                            <g id="g3441" transform="translate(24.127660, 9.049383)">
                                <g id="g24" transform="translate(0.136043, 0.730855)">
                                    <path d="M20.1276596,9.04938272 C20.1276596,7.66820988 19.8455319,6.45830247 19.2812766,5.41966049 C18.7170213,4.38101852 17.9314894,3.51916667 16.9191489,2.82858025 C15.9123404,2.13799383 14.6953191,1.62419753 13.2791489,1.28719136 C11.8574468,0.939135802 10.2974468,0.773395062 8.59361702,0.773395062 C7.81914894,0.773395062 7.05021277,0.801018519 6.28680851,0.861790123 C5.51787234,0.917037037 4.78765957,0.994382716 4.07957447,1.08830247 C3.37702128,1.17117284 2.71319149,1.27614198 2.08808511,1.39216049 C1.46297872,1.5137037 0.898723404,1.6407716 0.395319149,1.7733642 L0.395319149,5.59645062 C1.50723404,5.18209877 2.75744681,4.85614198 4.14595745,4.61858025 C5.53446809,4.38101852 7.11106383,4.265 8.8812766,4.265 C10.1591489,4.265 11.2434043,4.36444444 12.1451064,4.56333333 C13.0412766,4.76774691 13.7770213,5.06055556 14.3468085,5.45833333 C14.9221277,5.84506173 15.3370213,6.32570988 15.5970213,6.8892284 C15.8570213,7.45274691 15.9842553,8.0991358 15.9842553,8.82287037 C15.9842553,9.61290123 15.7629787,10.2813889 15.3259574,10.833858 C14.8889362,11.3918519 14.313617,11.8945988 13.6,12.3310494 C12.886383,12.7675 12.0731915,13.1652778 11.1604255,13.5299074 C10.2476596,13.894537 9.31829787,14.2646914 8.36680851,14.6569444 C7.41531915,15.0381481 6.48595745,15.4580247 5.57319149,15.9055247 C4.66042553,16.3585494 3.84723404,16.8944444 3.13361702,17.5076852 C2.42,18.1264506 1.84468085,18.8446605 1.40765957,19.6788889 C0.970638298,20.5075926 0.749361702,21.4965123 0.749361702,22.6401235 C0.749361702,23.6345679 0.959574468,24.6069136 1.37446809,25.5737346 C1.7893617,26.5405556 2.43659574,27.391358 3.3106383,28.142716 C4.19021277,28.8940741 5.31319149,29.4962654 6.68510638,29.9548148 C8.05702128,30.4133642 9.69446809,30.6454012 11.5974468,30.6454012 C12.0842553,30.6454012 12.6208511,30.6233025 13.1906383,30.5791049 C13.7604255,30.5349074 14.3412766,30.4741358 14.9276596,30.3857407 C15.5140426,30.3083951 16.0948936,30.2144753 16.6646809,30.1150309 C17.2344681,30.0100617 17.7655319,29.8940432 18.2578723,29.7780247 L18.2578723,26.2145988 C17.112766,26.5460802 15.9731915,26.7946914 14.8280851,26.9659568 C13.6829787,27.1316975 12.5765957,27.2200926 11.5089362,27.2200926 C9.23531915,27.2200926 7.56468085,26.8444136 6.49702128,26.0875309 C5.4293617,25.3306481 4.89276596,24.3141049 4.89276596,23.0379012 C4.89276596,22.2533951 5.11404255,21.5793827 5.55106383,21.0158642 C5.98808511,20.446821 6.56340426,19.9495988 7.27702128,19.5020988 C7.9906383,19.0601235 8.80382979,18.6512963 9.71659574,18.2921914 C10.6293617,17.922037 11.5587234,17.5518827 12.5102128,17.1651543 C13.4617021,16.7784259 14.3910638,16.3585494 15.3038298,15.8944753 C16.2165957,15.4359259 17.0297872,14.8945062 17.7434043,14.2591667 C18.4570213,13.6293519 19.0323404,12.8945679 19.4693617,12.0492901 C19.906383,11.2040123 20.1276596,10.2040432 20.1276596,9.04938272" id="path26"></path>
                                </g>
                                <g id="g28" transform="translate(25.071745, 1.497222)">
                                    <path d="M17.1276596,11.5740741 C17.1276596,12.9497222 16.9782979,14.1596296 16.6685106,15.1872222 C16.3697872,16.2203395 15.932766,17.0766667 15.3685106,17.7672531 C14.8042553,18.4578395 14.1182979,18.9771605 13.3106383,19.325216 C12.5029787,19.6732716 11.5957447,19.844537 10.6,19.844537 C9.44382979,19.844537 8.45361702,19.6235494 7.6293617,19.1705247 C6.80510638,18.7175 6.13021277,18.1153086 5.60468085,17.3584259 C5.07361702,16.6015432 4.68638298,15.7231173 4.44297872,14.7176235 C4.19957447,13.723179 4.07787234,12.667963 4.07787234,11.5740741 C4.07787234,10.1929012 4.22723404,8.98299383 4.53148936,7.94987654 C4.83574468,6.90570988 5.27276596,6.04385802 5.83702128,5.3532716 C6.4012766,4.66820988 7.08723404,4.1433642 7.88382979,3.80083333 C8.68595745,3.44725309 9.59319149,3.27598765 10.6,3.27598765 C11.7617021,3.27598765 12.7519149,3.5025 13.5761702,3.95552469 C14.4004255,4.40302469 15.0753191,5.01074074 15.606383,5.76762346 C16.1319149,6.52450617 16.5191489,7.4029321 16.7625532,8.40290123 C17.0059574,9.40287037 17.1276596,10.4636111 17.1276596,11.5740741 M21.0940426,11.7508642 C21.0940426,10.0161111 20.8451064,8.425 20.3582979,6.97753086 C19.8714894,5.53006173 19.1634043,4.29805556 18.2451064,3.26493827 C17.3212766,2.23734568 16.2038298,1.43074074 14.8817021,0.867222222 C13.5540426,0.292654321 12.0548936,0.00537037037 10.3787234,0.00537037037 C8.77446809,0.00537037037 7.33617021,0.253981481 6.0693617,0.751203704 C4.79702128,1.24842593 3.72382979,1.97768519 2.8387234,2.94450617 C1.95914894,3.90580247 1.28425532,5.0991358 0.814042553,6.52450617 C0.343829787,7.94987654 0.111489362,9.58518519 0.111489362,11.4414815 C0.111489362,13.1762346 0.354893617,14.7562963 0.847234043,16.1871914 C1.33957447,17.6180864 2.04212766,18.8500926 2.96042553,19.8832099 C3.88425532,20.9108025 5.00723404,21.7118827 6.32382979,22.2809259 C7.64595745,22.8554938 9.1506383,23.1427778 10.8268085,23.1427778 C12.4310638,23.1427778 13.8638298,22.8941667 15.1361702,22.3969444 C16.4029787,21.8941975 17.4817021,21.170463 18.3668085,20.2091667 C19.246383,19.2589198 19.9212766,18.0711111 20.3914894,16.6457407 C20.8617021,15.2203704 21.0940426,13.5850617 21.0940426,11.7508642" id="path30"></path>
                                </g>
                                <g id="g32" transform="translate(49.494894, 1.583407)">
                                    <path d="M22.1276596,28.1481481 C20.0919149,28.5735494 18.3438298,28.7890123 16.8723404,28.7890123 C13.3817021,28.7890123 11.6391489,26.9658642 11.6391489,23.3195679 L11.6391489,19.4025617 L21.4361702,19.4025617 L21.4361702,16.1816667 L11.6391489,16.1816667 L11.6391489,0.320277778 L7.69489362,0.320277778 L7.69489362,16.1816667 L0.503404255,16.1816667 L0.503404255,19.4025617 L7.69489362,19.4025617 L7.69489362,23.0985802 C7.69489362,29.0431481 10.7982979,32.0154321 17.0051064,32.0154321 C18.5485106,32.0154321 20.2578723,31.838642 22.1276596,31.4850617 L22.1276596,28.1481481 Z" id="path34"></path>
                                </g>
                                <g id="g36" transform="translate(73.749404, 0.691691)">
                                    <path d="M21.1276596,1.52469136 C20.253617,1.29817901 19.346383,1.14348765 18.4114894,1.04404321 C17.4765957,0.950123457 16.5251064,0.900401235 15.5625532,0.900401235 C12.7523404,0.900401235 10.6612766,1.53574074 9.27829787,2.80089506 C7.89531915,4.07157407 7.2093617,6.01626543 7.2093617,8.64049383 L7.2093617,20.2920679 L0.947234043,20.2920679 L0.947234043,23.5405864 L7.2093617,23.5405864 L7.2093617,29.6840432 L11.0817021,30.6840123 L11.0817021,23.5405864 L21.1276596,23.5405864 L21.1276596,20.2920679 L11.0817021,20.2920679 L11.0817021,8.95540123 C11.0817021,7.35324074 11.5076596,6.15438272 12.3651064,5.35882716 C13.2170213,4.5687963 14.472766,4.17101852 16.1378723,4.17101852 C16.8514894,4.17101852 17.6314894,4.22626543 18.4778723,4.33675926 C19.3242553,4.44725309 20.2038298,4.62404321 21.1276596,4.86160494 L21.1276596,1.52469136 Z" id="path38"></path>
                                </g>
                                <g id="g40" transform="translate(98.993234, 1.610478)">
                                    <polygon id="path42" points="23.6595745 22.6234568 20.4068085 0.292654321 15.7102128 0.292654321 12.4795745 9.63490741 11.8323404 11.9055556 11.0965957 9.50231481 7.9987234 0.292654321 3.43489362 0.292654321 0.204255319 22.6234568 3.99361702 22.6234568 5.86340426 7.45817901 6.26170213 4.0770679 7.22425532 7.03277778 10.4714894 17.0656173 13.2595745 17.0656173 16.7557447 7.16537037 17.7570213 4.20966049 18.0889362 7.34216049 19.8314894 22.6234568"></polygon>
                                </g>
                                <g id="g44" transform="translate(126.364936, 1.018630)">
                                    <path d="M14.5957447,11.0493827 L9.67234043,11.0493827 C8.70978723,11.0493827 7.88,10.9499383 7.17744681,10.7620988 C6.48042553,10.5687346 5.9106383,10.2925 5.46255319,9.93891975 C5.02,9.57981481 4.68808511,9.15441358 4.47234043,8.65719136 C4.25659574,8.16549383 4.15148936,7.60197531 4.15148936,6.98320988 C4.15148936,6.55228395 4.21787234,6.1379321 4.3506383,5.74567901 C4.48340426,5.35342593 4.69914894,4.99984568 4.99787234,4.70151235 C5.29106383,4.39765432 5.67829787,4.1545679 6.15404255,3.97777778 C6.62978723,3.80098765 7.2106383,3.71259259 7.89106383,3.71259259 C8.78170213,3.71259259 9.80510638,3.98330247 10.9557447,4.51919753 C12.106383,5.06061728 13.3178723,5.91694444 14.5957447,7.08817901 L14.5957447,11.0493827 Z M15.0217021,0.883950617 L14.9331915,3.88938272 C13.7106383,2.685 12.4770213,1.81762346 11.2212766,1.2817284 C9.96553191,0.751358025 8.64893617,0.48617284 7.26595745,0.48617284 C5.98808511,0.48617284 4.89829787,0.646388889 3.99106383,0.972345679 C3.0893617,1.29830247 2.34255319,1.74580247 1.75617021,2.32037037 C1.16978723,2.88941358 0.738297872,3.56342593 0.461702128,4.33135802 C0.190638298,5.10481481 0.0523404255,5.93904321 0.0523404255,6.84509259 C0.0523404255,9.08811728 0.887659574,10.8394444 2.55829787,12.1045988 C4.22893617,13.3752778 6.69617021,14.0106173 9.96553191,14.0106173 L14.5957447,14.0106173 L14.5957447,15.966358 C14.5957447,17.2867593 14.1753191,18.3419753 13.3289362,19.1375309 C12.4825532,19.9275617 11.1880851,20.3253395 9.45106383,20.3253395 C8.18978723,20.3253395 6.94510638,20.1816975 5.72255319,19.905463 C4.49446809,19.6237037 3.22765957,19.2204012 1.92212766,18.7010802 L1.92212766,22.1982099 C2.41446809,22.375 2.95659574,22.5462654 3.55957447,22.7175309 C4.16255319,22.8887963 4.7987234,23.037963 5.46255319,23.1705556 C6.13191489,23.3086728 6.82893617,23.413642 7.55914894,23.4965123 C8.28382979,23.5793827 9.01957447,23.6180556 9.76085106,23.6180556 C11.1161702,23.6180556 12.3331915,23.4688889 13.4174468,23.1705556 C14.4961702,22.8777469 15.4144681,22.4247222 16.1668085,21.8170062 C16.913617,21.2092901 17.4889362,20.441358 17.892766,19.5242593 C18.2910638,18.6071605 18.4957447,17.524321 18.4957447,16.2757407 L18.4957447,0.883950617 L15.0217021,0.883950617 Z" id="path46"></path>
                                </g>
                                <g id="g48" transform="translate(153.008085, 1.610478)">
                                    <path d="M2.84217094e-14,22.6234568 L3.54042553,22.6234568 L3.65659574,18.5130864 C4.97319149,20.0986728 6.2787234,21.2478086 7.56212766,21.9604938 C8.84553191,22.673179 10.14,23.0267593 11.4510638,23.0267593 C13.7634043,23.0267593 15.5225532,22.2809259 16.7174468,20.7782099 C17.9123404,19.2865432 18.4655319,17.0545679 18.3770213,14.1043827 L14.4548936,14.1043827 C14.4991489,16.0656481 14.2170213,17.4799691 13.5974468,18.3639198 C12.9834043,19.2478704 12.0817021,19.6898457 10.8923404,19.6898457 C10.3723404,19.6898457 9.84680851,19.5959259 9.3212766,19.4136111 C8.79574468,19.2257716 8.25361702,18.9274383 7.69489362,18.5241358 C7.14170213,18.1153086 6.54978723,17.590463 5.92468085,16.9551235 C5.29957447,16.3142593 4.63574468,15.5463272 3.92212766,14.6402778 L3.92212766,0.292654321 L2.84217094e-14,0.292654321 L2.84217094e-14,22.6234568 Z" id="path50"></path>
                                </g>
                                <g id="g52" transform="translate(175.435574, 1.229213)">
                                    <path d="M16.5957447,13.5740741 C16.64,14.5685185 16.5459574,15.4800926 16.3080851,16.2977469 C16.0702128,17.1264506 15.6995745,17.8336111 15.207234,18.4247531 C14.7093617,19.0158951 14.0842553,19.4799691 13.3429787,19.8169753 C12.6017021,20.1484568 11.7442553,20.3197222 10.7595745,20.3197222 C9.91319149,20.3197222 9.14425532,20.1484568 8.44170213,19.8280247 C7.74468085,19.4965432 7.14723404,19.0379938 6.63829787,18.4468519 C6.13489362,17.8501852 5.72553191,17.1430247 5.41574468,16.3087963 C5.10042553,15.4800926 4.91234043,14.5685185 4.83489362,13.5740741 L16.5957447,13.5740741 Z M20.6285106,13.0160802 C20.6285106,12.4746605 20.6229787,12.0105864 20.606383,11.6404321 C20.5897872,11.2702778 20.5676596,10.9222222 20.54,10.5962654 L4.83489362,10.5962654 C4.83489362,8.3145679 5.47659574,6.55771605 6.75446809,5.33675926 C8.02680851,4.11027778 9.86893617,3.50256173 12.2753191,3.50256173 C12.9280851,3.50256173 13.5808511,3.52466049 14.233617,3.57438272 C14.886383,3.62962963 15.5225532,3.70145062 16.1310638,3.78984568 C16.7340426,3.87824074 17.3204255,3.97768519 17.873617,4.08817901 C18.4378723,4.19867284 18.9523404,4.32021605 19.4225532,4.45833333 L19.4225532,1.27058642 C18.3714894,0.977777778 17.1765957,0.740216049 15.8489362,0.552376543 C14.5212766,0.364537037 13.1438298,0.276141975 11.7165957,0.276141975 C9.80255319,0.276141975 8.15404255,0.535802469 6.77659574,1.04959877 C5.39361702,1.56891975 4.25957447,2.32580247 3.37446809,3.31472222 C2.49489362,4.29259259 1.84212766,5.5025 1.41617021,6.93891975 C0.995744681,8.36981481 0.785531915,9.98854938 0.785531915,11.7951235 C0.785531915,13.3696605 1.01234043,14.8502778 1.46042553,16.2535494 C1.91404255,17.656821 2.57787234,18.8888272 3.44638298,19.9495679 C4.31489362,21.0103086 5.37702128,21.8500617 6.63829787,22.4688272 C7.90510638,23.098642 9.33787234,23.4080247 10.9421277,23.4080247 C12.4965957,23.4080247 13.8795745,23.1594136 15.0855319,22.6732407 C16.2859574,22.1870679 17.2982979,21.4909568 18.1225532,20.5959568 C18.9468085,19.6954321 19.5719149,18.6070679 19.9923404,17.3253395 C20.412766,16.0380864 20.6285106,14.6071914 20.6285106,13.0160802 L20.6285106,13.0160802 Z" id="path54"></path>
                                </g>
                            </g>
                            <g id="g3459" transform="translate(251.468085, 1.000000)">
                                <g id="g56" transform="translate(0.858553, 9.952515)">
                                    <polygon id="path58" points="16.5957447 0 0.0442553191 0 0.0442553191 29.0764506 16.5957447 29.0764506 16.5957447 25.7340123 4.0106383 25.7340123 4.0106383 16.7232407 16.1089362 16.7232407 16.1089362 13.3918519 4.0106383 13.3918519 4.0106383 3.38111111 16.5957447 3.38111111"></polygon>
                                </g>
                                <g id="g60" transform="translate(25.071745, 9.659861)">
                                    <path d="M0,22.6234568 L3.45191489,22.6234568 L3.60680851,19.0268827 C4.26510638,19.7892901 4.89574468,20.435679 5.50425532,20.9439506 C6.10723404,21.4577469 6.71021277,21.8665741 7.29659574,22.1814815 C7.88297872,22.4963889 8.48042553,22.7118519 9.08893617,22.8389198 C9.69744681,22.9659877 10.3280851,23.0267593 10.9808511,23.0267593 C13.2821277,23.0267593 15.0246809,22.3472222 16.2029787,20.9881481 C17.3868085,19.6345988 17.9787234,17.590463 17.9787234,14.8667901 L17.9787234,0.292654321 L14.1008511,0.292654321 L14.1008511,14.5518827 C14.1008511,16.2976852 13.7744681,17.5959877 13.1217021,18.430216 C12.4634043,19.2754938 11.4953191,19.6898457 10.2008511,19.6898457 C9.72510638,19.6898457 9.26042553,19.6180247 8.81234043,19.4799074 C8.3587234,19.3362654 7.88297872,19.093179 7.39617021,18.7451235 C6.9093617,18.3915432 6.37276596,17.9219444 5.80297872,17.3308025 C5.23319149,16.7396605 4.59148936,15.9993519 3.87787234,15.1098765 L3.87787234,0.292654321 L0,0.292654321 L0,22.6234568 Z" id="path62"></path>
                                </g>
                                <g id="g64" transform="translate(48.452936, 0.365611)">
                                    <path d="M5.53191489,24.6234568 C5.53191489,23.9107716 5.64808511,23.258858 5.88595745,22.667716 C6.12382979,22.0710494 6.45574468,21.5683025 6.89276596,21.1539506 C7.3187234,20.7395988 7.82765957,20.413642 8.41404255,20.1871296 C9.00042553,19.9550926 9.65319149,19.8445988 10.3668085,19.8445988 C11.1357447,19.8445988 11.8217021,19.9716667 12.4246809,20.2313272 C13.0221277,20.4909877 13.5310638,20.8390432 13.9404255,21.2865432 C14.3497872,21.7340432 14.6595745,22.2423148 14.8753191,22.8224074 C15.0910638,23.3969753 15.1961702,24.0046914 15.1961702,24.6234568 C15.1961702,25.336142 15.08,25.9880556 14.8421277,26.5791975 C14.6042553,27.1758642 14.2723404,27.6786111 13.8353191,28.092963 C13.4093617,28.5073148 12.9004255,28.8332716 12.3140426,29.0653086 C11.7276596,29.291821 11.0748936,29.4078395 10.3668085,29.4078395 C9.59234043,29.4078395 8.90638298,29.2752469 8.30340426,29.004537 C7.70595745,28.7393519 7.19702128,28.3912963 6.78765957,27.949321 C6.37829787,27.5073457 6.06851064,27.0045988 5.85276596,26.4245062 C5.63702128,25.8499383 5.53191489,25.2477469 5.53191489,24.6234568 L5.53191489,24.6234568 Z M4.35361702,6.35882716 C4.35361702,5.3091358 4.9012766,4.5412037 5.99659574,4.05503086 C7.09744681,3.57438272 8.62978723,3.3312963 10.5880851,3.3312963 C11.8217021,3.3312963 12.8561702,3.44731481 13.6970213,3.66830247 C14.5323404,3.89481481 15.207234,4.18762346 15.7217021,4.5467284 C16.2361702,4.91688272 16.6012766,5.32570988 16.8225532,5.79530864 C17.0493617,6.26490741 17.16,6.74003086 17.16,7.2317284 C17.16,8.13777778 16.7838298,8.80074074 16.0425532,9.23166667 C15.3012766,9.66259259 14.167234,9.9112037 12.6348936,9.98854938 L6.7987234,10.1874383 C6.31191489,9.86148148 5.90255319,9.54657407 5.58723404,9.23166667 C5.26638298,8.91675926 5.01744681,8.60737654 4.84042553,8.28694444 C4.66340426,7.96651235 4.53617021,7.65160494 4.46425532,7.33117284 C4.38680851,7.01074074 4.35361702,6.69030864 4.35361702,6.35882716 L4.35361702,6.35882716 Z M17.8017021,28.7614506 C18.2165957,28.2421296 18.5429787,27.6399383 18.7753191,26.9493519 C19.0021277,26.2587654 19.1182979,25.5129321 19.1182979,24.7173765 C19.1182979,23.5571914 18.9025532,22.4964506 18.4821277,21.540679 C18.0617021,20.5904321 17.4642553,19.7672531 16.6897872,19.0821914 C15.9153191,18.4026543 14.9914894,17.872284 13.9182979,17.4966049 C12.8395745,17.1209259 11.6557447,16.9275617 10.3668085,16.9275617 C9.43191489,16.9275617 8.55234043,17.0270062 7.73361702,17.2258951 C6.92042553,17.424784 6.27319149,17.6733951 5.79744681,17.9717284 C5.51531915,17.5573765 5.27744681,17.1651235 5.08382979,16.7949691 C4.89021277,16.4248148 4.79617021,16.0049383 4.79617021,15.5463889 C4.79617021,14.9828704 5.06723404,14.5187963 5.6093617,14.148642 C6.15148936,13.772963 6.86510638,13.5740741 7.75574468,13.5464506 L13.6361702,13.325463 C14.753617,13.2923148 15.7825532,13.1541975 16.7229787,12.9000617 C17.6634043,12.6514506 18.4765957,12.286821 19.1514894,11.8116975 C19.826383,11.3365741 20.3519149,10.7509568 20.733617,10.0548457 C21.1097872,9.35320988 21.3034043,8.55212963 21.3034043,7.62950617 C21.3034043,6.63506173 21.0876596,5.69033951 20.6561702,4.80638889 C20.2246809,3.91691358 19.5608511,3.13240741 18.6646809,2.45839506 C17.7629787,1.78438272 16.6234043,1.24848765 15.2404255,0.845185185 C13.8629787,0.441882716 12.22,0.242993827 10.3170213,0.242993827 C8.50808511,0.242993827 6.96468085,0.386635802 5.69787234,0.679444444 C4.42553191,0.966728395 3.38553191,1.37003086 2.56680851,1.87830247 C1.75361702,2.39209877 1.15617021,2.99981481 0.785531915,3.70145062 C0.414893617,4.40861111 0.232340426,5.1820679 0.232340426,6.02734568 C0.232340426,7.11018519 0.481276596,8.0604321 0.984680851,8.87256173 C1.49361702,9.69021605 2.27361702,10.4747222 3.32468085,11.2316049 C2.93744681,11.4083951 2.60553191,11.6293827 2.32340426,11.9000926 C2.0412766,12.1652778 1.81446809,12.4636111 1.63191489,12.7785185 C1.45489362,13.0989506 1.32212766,13.4359568 1.23361702,13.789537 C1.14510638,14.148642 1.10085106,14.4966975 1.10085106,14.8392284 C1.10085106,15.8005247 1.32212766,16.6844753 1.77574468,17.4855556 C2.2293617,18.2866358 2.76595745,19.0379938 3.39106383,19.750679 C3.11446809,20.0932099 2.86,20.4246914 2.64978723,20.7561728 C2.42851064,21.0766049 2.24595745,21.4301852 2.09106383,21.8113889 C1.93617021,22.1925926 1.81446809,22.5958951 1.73148936,23.0323457 C1.64851064,23.4687963 1.60978723,23.9715432 1.60978723,24.5350617 C1.60978723,25.6897222 1.82553191,26.750463 2.24595745,27.7062346 C2.66638298,28.6564815 3.26382979,29.4796605 4.02723404,30.1647222 C4.7906383,30.8442593 5.71446809,31.3746296 6.78765957,31.7558333 C7.86638298,32.1315123 9.05574468,32.3248765 10.3668085,32.3248765 C10.9144681,32.3248765 11.44,32.2862037 11.9434043,32.208858 C12.4468085,32.1315123 12.8948936,32.0375926 13.2821277,31.9160494 L21.3919149,31.9160494 L21.3919149,28.7614506 L17.8017021,28.7614506 L17.8017021,28.7614506 Z" id="path66"></path>
                                </g>
                                <g id="g68" transform="translate(75.143532, 9.501179)">
                                    <path d="M9.06382979,32.1481481 C9.49531915,32.1481481 9.89361702,32.0708025 10.2697872,31.9161111 C10.6404255,31.7614198 10.9612766,31.5404321 11.2378723,31.2586728 C11.5089362,30.9769136 11.7246809,30.6509568 11.8795745,30.2918519 C12.04,29.9327469 12.1174468,29.5294444 12.1174468,29.0985185 C12.1174468,28.6841667 12.04,28.2974383 11.8795745,27.9217593 C11.7246809,27.5516049 11.5089362,27.2256481 11.2378723,26.9438889 C10.9612766,26.6621296 10.6404255,26.4466667 10.2697872,26.2864506 C9.89361702,26.1317593 9.49531915,26.0544136 9.06382979,26.0544136 C8.63234043,26.0544136 8.23404255,26.1317593 7.86340426,26.2864506 C7.49276596,26.4466667 7.16638298,26.6621296 6.88978723,26.9438889 C6.6187234,27.2256481 6.40297872,27.5516049 6.24808511,27.9217593 C6.09319149,28.2974383 6.01574468,28.6841667 6.01574468,29.0985185 C6.01574468,29.5294444 6.09319149,29.9327469 6.24808511,30.2918519 C6.40297872,30.6509568 6.6187234,30.9769136 6.88978723,31.2586728 C7.16638298,31.5404321 7.49276596,31.7614198 7.86340426,31.9161111 C8.23404255,32.0708025 8.63234043,32.1481481 9.06382979,32.1481481 L9.06382979,32.1481481 Z M7.70297872,19.585 L1.09234043,19.585 L1.09234043,22.7837963 L11.6251064,22.7837963 L11.6251064,3.67941358 L18.2855319,3.67941358 L18.2855319,0.452993827 L0.356595745,0.452993827 L0.356595745,3.67941358 L7.70297872,3.67941358 L7.70297872,19.585 L7.70297872,19.585 Z" id="path70"></path>
                                </g>
                                <g id="g72" transform="translate(100.311872, 9.659861)">
                                    <path d="M0,22.6234568 L3.45191489,22.6234568 L3.60680851,19.0268827 C4.26510638,19.7892901 4.89574468,20.435679 5.50425532,20.9439506 C6.10723404,21.4577469 6.71021277,21.8665741 7.29659574,22.1814815 C7.88297872,22.4963889 8.48042553,22.7118519 9.08893617,22.8389198 C9.69744681,22.9659877 10.3280851,23.0267593 10.9808511,23.0267593 C13.2821277,23.0267593 15.0246809,22.3472222 16.2029787,20.9881481 C17.3868085,19.6345988 17.9787234,17.590463 17.9787234,14.8667901 L17.9787234,0.292654321 L14.1008511,0.292654321 L14.1008511,14.5518827 C14.1008511,16.2976852 13.7744681,17.5959877 13.1217021,18.430216 C12.4634043,19.2754938 11.4953191,19.6898457 10.2008511,19.6898457 C9.72510638,19.6898457 9.26042553,19.6180247 8.81234043,19.4799074 C8.3587234,19.3362654 7.88297872,19.093179 7.39617021,18.7451235 C6.9093617,18.3915432 6.37276596,17.9219444 5.80297872,17.3308025 C5.23319149,16.7396605 4.59148936,15.9993519 3.87787234,15.1098765 L3.87787234,0.292654321 L0,0.292654321 L0,22.6234568 Z" id="path74"></path>
                                </g>
                                <g id="g76" transform="translate(123.649362, 9.278596)">
                                    <path d="M16.5957447,13.5740741 C16.64,14.5685185 16.5459574,15.4800926 16.3080851,16.2977469 C16.0702128,17.1264506 15.6995745,17.8336111 15.207234,18.4247531 C14.7093617,19.0158951 14.0842553,19.4799691 13.3429787,19.8169753 C12.6017021,20.1484568 11.7442553,20.3197222 10.7595745,20.3197222 C9.91319149,20.3197222 9.14425532,20.1484568 8.44170213,19.8280247 C7.74468085,19.4965432 7.14723404,19.0379938 6.63829787,18.4468519 C6.13489362,17.8501852 5.72553191,17.1430247 5.41574468,16.3087963 C5.10042553,15.4800926 4.91234043,14.5685185 4.83489362,13.5740741 L16.5957447,13.5740741 Z M20.6285106,13.0160802 C20.6285106,12.4746605 20.6229787,12.0105864 20.606383,11.6404321 C20.5897872,11.2702778 20.5676596,10.9222222 20.54,10.5962654 L4.83489362,10.5962654 C4.83489362,8.3145679 5.47659574,6.55771605 6.75446809,5.33675926 C8.02680851,4.11027778 9.86893617,3.50256173 12.2753191,3.50256173 C12.9280851,3.50256173 13.5808511,3.52466049 14.233617,3.57438272 C14.886383,3.62962963 15.5225532,3.70145062 16.1310638,3.78984568 C16.7340426,3.87824074 17.3204255,3.97768519 17.873617,4.08817901 C18.4378723,4.19867284 18.9523404,4.32021605 19.4225532,4.45833333 L19.4225532,1.27058642 C18.3714894,0.977777778 17.1765957,0.740216049 15.8489362,0.552376543 C14.5212766,0.364537037 13.1438298,0.276141975 11.7165957,0.276141975 C9.80255319,0.276141975 8.15404255,0.535802469 6.77659574,1.04959877 C5.39361702,1.56891975 4.25957447,2.32580247 3.37446809,3.31472222 C2.49489362,4.29259259 1.84212766,5.5025 1.41617021,6.93891975 C0.995744681,8.36981481 0.785531915,9.98854938 0.785531915,11.7951235 C0.785531915,13.3696605 1.01234043,14.8502778 1.46042553,16.2535494 C1.91404255,17.656821 2.57787234,18.8888272 3.44638298,19.9495679 C4.31489362,21.0103086 5.37702128,21.8500617 6.63829787,22.4688272 C7.90510638,23.098642 9.33787234,23.4080247 10.9421277,23.4080247 C12.4965957,23.4080247 13.8795745,23.1594136 15.0855319,22.6732407 C16.2859574,22.1870679 17.2982979,21.4909568 18.1225532,20.5959568 C18.9468085,19.6954321 19.5719149,18.6070679 19.9923404,17.3253395 C20.412766,16.0380864 20.6285106,14.6071914 20.6285106,13.0160802 L20.6285106,13.0160802 Z" id="path78"></path>
                                </g>
                                <g id="g80" transform="translate(148.732170, 9.278596)">
                                    <path d="M16.5957447,13.5740741 C16.64,14.5685185 16.5404255,15.4800926 16.3025532,16.2977469 C16.0646809,17.1264506 15.6995745,17.8336111 15.2017021,18.4247531 C14.7038298,19.0158951 14.0842553,19.4799691 13.3429787,19.8169753 C12.5961702,20.1484568 11.7387234,20.3197222 10.7595745,20.3197222 C9.91319149,20.3197222 9.1387234,20.1484568 8.43617021,19.8280247 C7.74468085,19.4965432 7.14170213,19.0379938 6.63276596,18.4468519 C6.1293617,17.8501852 5.72553191,17.1430247 5.41574468,16.3087963 C5.10042553,15.4800926 4.90680851,14.5685185 4.8293617,13.5740741 L16.5957447,13.5740741 Z M20.6285106,13.0160802 C20.6285106,12.4746605 20.6174468,12.0105864 20.606383,11.6404321 C20.5897872,11.2702778 20.5676596,10.9222222 20.54,10.5962654 L4.8293617,10.5962654 C4.8293617,8.3145679 5.47106383,6.55771605 6.75446809,5.33675926 C8.02680851,4.11027778 9.86340426,3.50256173 12.2753191,3.50256173 C12.9225532,3.50256173 13.5808511,3.52466049 14.2280851,3.57438272 C14.886383,3.62962963 15.5170213,3.70145062 16.1255319,3.78984568 C16.7340426,3.87824074 17.3204255,3.97768519 17.8680851,4.08817901 C18.4323404,4.19867284 18.9523404,4.32021605 19.4225532,4.45833333 L19.4225532,1.27058642 C18.3659574,0.977777778 17.1765957,0.740216049 15.8489362,0.552376543 C14.5212766,0.364537037 13.1382979,0.276141975 11.7110638,0.276141975 C9.79702128,0.276141975 8.15404255,0.535802469 6.77659574,1.04959877 C5.39361702,1.56891975 4.25957447,2.32580247 3.36893617,3.31472222 C2.4893617,4.29259259 1.83659574,5.5025 1.41617021,6.93891975 C0.990212766,8.36981481 0.78,9.98854938 0.78,11.7951235 C0.78,13.3696605 1.00680851,14.8502778 1.46042553,16.2535494 C1.91404255,17.656821 2.57234043,18.8888272 3.44085106,19.9495679 C4.3093617,21.0103086 5.37702128,21.8500617 6.63276596,22.4688272 C7.89957447,23.098642 9.33787234,23.4080247 10.9365957,23.4080247 C12.4965957,23.4080247 13.8740426,23.1594136 15.0855319,22.6732407 C16.2804255,22.1870679 17.2982979,21.4909568 18.1170213,20.5959568 C18.9412766,19.6954321 19.566383,18.6070679 19.9868085,17.3253395 C20.407234,16.0380864 20.6285106,14.6071914 20.6285106,13.0160802 L20.6285106,13.0160802 Z" id="path82"></path>
                                </g>
                                <g id="g84" transform="translate(176.462000, 9.659861)">
                                    <path d="M0,22.6234568 L3.54042553,22.6234568 L3.65659574,18.5130864 C4.97319149,20.0986728 6.2787234,21.2478086 7.56212766,21.9604938 C8.84553191,22.673179 10.14,23.0267593 11.4455319,23.0267593 C13.7634043,23.0267593 15.5225532,22.2809259 16.7174468,20.7782099 C17.9068085,19.2865432 18.4655319,17.0545679 18.3714894,14.1043827 L14.4548936,14.1043827 C14.4991489,16.0656481 14.2114894,17.4799691 13.5974468,18.3639198 C12.9834043,19.2478704 12.0817021,19.6898457 10.8978723,19.6898457 C10.3723404,19.6898457 9.84680851,19.5959259 9.3212766,19.4136111 C8.79574468,19.2257716 8.24808511,18.9274383 7.70042553,18.5241358 C7.13617021,18.1153086 6.55531915,17.590463 5.92468085,16.9551235 C5.29957447,16.3142593 4.63574468,15.5463272 3.92212766,14.6402778 L3.92212766,0.292654321 L0,0.292654321 L0,22.6234568 Z" id="path86"></path>
                                </g>
                                <g id="g88" transform="translate(200.540979, 9.501179)">
                                    <path d="M9.06382979,32.1481481 C9.49531915,32.1481481 9.89361702,32.0708025 10.2642553,31.9161111 C10.6348936,31.7614198 10.9612766,31.5404321 11.2378723,31.2586728 C11.5034043,30.9769136 11.7191489,30.6509568 11.8795745,30.2918519 C12.0344681,29.9327469 12.1119149,29.5294444 12.1119149,29.0985185 C12.1119149,28.6841667 12.0344681,28.2974383 11.8795745,27.9217593 C11.7191489,27.5516049 11.5034043,27.2256481 11.2378723,26.9438889 C10.9612766,26.6621296 10.6348936,26.4466667 10.2642553,26.2864506 C9.89361702,26.1317593 9.49531915,26.0544136 9.06382979,26.0544136 C8.63234043,26.0544136 8.23404255,26.1317593 7.85787234,26.2864506 C7.48723404,26.4466667 7.16085106,26.6621296 6.88978723,26.9438889 C6.6187234,27.2256481 6.40297872,27.5516049 6.24255319,27.9217593 C6.09319149,28.2974383 6.01021277,28.6841667 6.01021277,29.0985185 C6.01021277,29.5294444 6.09319149,29.9327469 6.24255319,30.2918519 C6.40297872,30.6509568 6.6187234,30.9769136 6.88978723,31.2586728 C7.16085106,31.5404321 7.48723404,31.7614198 7.85787234,31.9161111 C8.23404255,32.0708025 8.63234043,32.1481481 9.06382979,32.1481481 L9.06382979,32.1481481 Z M7.70297872,19.585 L1.09234043,19.585 L1.09234043,22.7837963 L11.6251064,22.7837963 L11.6251064,3.67941358 L18.28,3.67941358 L18.28,0.452993827 L0.356595745,0.452993827 L0.356595745,3.67941358 L7.70297872,3.67941358 L7.70297872,19.585 L7.70297872,19.585 Z" id="path90"></path>
                                </g>
                                <g id="g92" transform="translate(225.703234, 9.659861)">
                                    <path d="M0,22.6234568 L3.45744681,22.6234568 L3.60680851,19.0268827 C4.26510638,19.7892901 4.89574468,20.435679 5.50425532,20.9439506 C6.11276596,21.4577469 6.71021277,21.8665741 7.29659574,22.1814815 C7.88851064,22.4963889 8.48042553,22.7118519 9.09446809,22.8389198 C9.70297872,22.9659877 10.3280851,23.0267593 10.986383,23.0267593 C13.2876596,23.0267593 15.0302128,22.3472222 16.2085106,20.9881481 C17.3868085,19.6345988 17.9787234,17.590463 17.9787234,14.8667901 L17.9787234,0.292654321 L14.1008511,0.292654321 L14.1008511,14.5518827 C14.1008511,16.2976852 13.7744681,17.5959877 13.1217021,18.430216 C12.4689362,19.2754938 11.4953191,19.6898457 10.206383,19.6898457 C9.7306383,19.6898457 9.26595745,19.6180247 8.81787234,19.4799074 C8.36425532,19.3362654 7.88851064,19.093179 7.40170213,18.7451235 C6.9093617,18.3915432 6.37276596,17.9219444 5.80297872,17.3308025 C5.23319149,16.7396605 4.59148936,15.9993519 3.87787234,15.1098765 L3.87787234,0.292654321 L0,0.292654321 L0,22.6234568 Z" id="path94"></path>
                                </g>
                                <g id="g96" transform="translate(249.084426, 0.365611)">
                                    <path d="M5.53191489,24.6234568 C5.53191489,23.9107716 5.64808511,23.258858 5.88595745,22.667716 C6.12382979,22.0710494 6.4612766,21.5683025 6.89276596,21.1539506 C7.32425532,20.7395988 7.83319149,20.413642 8.41404255,20.1871296 C9.00595745,19.9550926 9.65319149,19.8445988 10.3668085,19.8445988 C11.1412766,19.8445988 11.827234,19.9716667 12.4246809,20.2313272 C13.0276596,20.4909877 13.5310638,20.8390432 13.9404255,21.2865432 C14.3497872,21.7340432 14.6595745,22.2423148 14.8753191,22.8224074 C15.0965957,23.3969753 15.2017021,24.0046914 15.2017021,24.6234568 C15.2017021,25.336142 15.0855319,25.9880556 14.8476596,26.5791975 C14.6097872,27.1758642 14.2723404,27.6786111 13.8408511,28.092963 C13.4093617,28.5073148 12.9004255,28.8332716 12.3195745,29.0653086 C11.7276596,29.291821 11.0804255,29.4078395 10.3668085,29.4078395 C9.59234043,29.4078395 8.90638298,29.2752469 8.30893617,29.004537 C7.70595745,28.7393519 7.20255319,28.3912963 6.79319149,27.949321 C6.38382979,27.5073457 6.07404255,27.0045988 5.85829787,26.4245062 C5.64255319,25.8499383 5.53191489,25.2477469 5.53191489,24.6234568 L5.53191489,24.6234568 Z M4.35361702,6.35882716 C4.35361702,5.3091358 4.90680851,4.5412037 6.00212766,4.05503086 C7.09744681,3.57438272 8.63531915,3.3312963 10.5880851,3.3312963 C11.8217021,3.3312963 12.8561702,3.44731481 13.7025532,3.66830247 C14.5323404,3.89481481 15.212766,4.18762346 15.7217021,4.5467284 C16.2417021,4.91688272 16.6068085,5.32570988 16.8225532,5.79530864 C17.0493617,6.26490741 17.16,6.74003086 17.16,7.2317284 C17.16,8.13777778 16.7893617,8.80074074 16.0425532,9.23166667 C15.3068085,9.66259259 14.167234,9.9112037 12.6404255,9.98854938 L6.80425532,10.1874383 C6.31191489,9.86148148 5.90808511,9.54657407 5.58723404,9.23166667 C5.27191489,8.91675926 5.02297872,8.60737654 4.84042553,8.28694444 C4.66893617,7.96651235 4.53617021,7.65160494 4.46425532,7.33117284 C4.38680851,7.01074074 4.35361702,6.69030864 4.35361702,6.35882716 L4.35361702,6.35882716 Z M17.807234,28.7614506 C18.2221277,28.2421296 18.5429787,27.6399383 18.7808511,26.9493519 C19.0076596,26.2587654 19.1238298,25.5129321 19.1238298,24.7173765 C19.1238298,23.5571914 18.9080851,22.4964506 18.4876596,21.540679 C18.067234,20.5904321 17.4642553,19.7672531 16.6953191,19.0821914 C15.9208511,18.4026543 14.9970213,17.872284 13.9182979,17.4966049 C12.8451064,17.1209259 11.6557447,16.9275617 10.3668085,16.9275617 C9.43191489,16.9275617 8.55787234,17.0270062 7.73361702,17.2258951 C6.92595745,17.424784 6.2787234,17.6733951 5.80297872,17.9717284 C5.52085106,17.5573765 5.28297872,17.1651235 5.0893617,16.7949691 C4.89574468,16.4248148 4.79617021,16.0049383 4.79617021,15.5463889 C4.79617021,14.9828704 5.06723404,14.5187963 5.6093617,14.148642 C6.15148936,13.772963 6.8706383,13.5740741 7.75574468,13.5464506 L13.6417021,13.325463 C14.753617,13.2923148 15.7880851,13.1541975 16.7229787,12.9000617 C17.6634043,12.6514506 18.4765957,12.286821 19.1570213,11.8116975 C19.826383,11.3365741 20.3574468,10.7509568 20.733617,10.0548457 C21.1097872,9.35320988 21.3089362,8.55212963 21.3089362,7.62950617 C21.3089362,6.63506173 21.0931915,5.69033951 20.6561702,4.80638889 C20.2246809,3.91691358 19.5608511,3.13240741 18.6646809,2.45839506 C17.7629787,1.78438272 16.6289362,1.24848765 15.2459574,0.845185185 C13.8629787,0.441882716 12.22,0.242993827 10.3170213,0.242993827 C8.51361702,0.242993827 6.97021277,0.386635802 5.69787234,0.679444444 C4.43106383,0.966728395 3.38553191,1.37003086 2.57234043,1.87830247 C1.75361702,2.39209877 1.16170213,2.99981481 0.79106383,3.70145062 C0.420425532,4.40861111 0.232340426,5.1820679 0.232340426,6.02734568 C0.232340426,7.11018519 0.486808511,8.0604321 0.990212766,8.87256173 C1.49361702,9.69021605 2.27361702,10.4747222 3.33021277,11.2316049 C2.93744681,11.4083951 2.61106383,11.6293827 2.32340426,11.9000926 C2.0412766,12.1652778 1.81446809,12.4636111 1.63744681,12.7785185 C1.46042553,13.0989506 1.32212766,13.4359568 1.23361702,13.789537 C1.14510638,14.148642 1.10085106,14.4966975 1.10085106,14.8392284 C1.10085106,15.8005247 1.32765957,16.6844753 1.7812766,17.4855556 C2.23489362,18.2866358 2.77148936,19.0379938 3.39106383,19.750679 C3.11446809,20.0932099 2.86553191,20.4246914 2.64978723,20.7561728 C2.42851064,21.0766049 2.24595745,21.4301852 2.09659574,21.8113889 C1.93617021,22.1925926 1.81446809,22.5958951 1.73702128,23.0323457 C1.65404255,23.4687963 1.60978723,23.9715432 1.60978723,24.5350617 C1.60978723,25.6897222 1.82553191,26.750463 2.24595745,27.7062346 C2.66638298,28.6564815 3.26382979,29.4796605 4.03276596,30.1647222 C4.79617021,30.8442593 5.71446809,31.3746296 6.79319149,31.7558333 C7.86638298,32.1315123 9.0612766,32.3248765 10.3668085,32.3248765 C10.9144681,32.3248765 11.44,32.2862037 11.9489362,32.208858 C12.4523404,32.1315123 12.9004255,32.0375926 13.2821277,31.9160494 L21.3919149,31.9160494 L21.3919149,28.7614506 L17.807234,28.7614506 L17.807234,28.7614506 Z" id="path98"></path>
                                </g>
                            </g>
                            <g id="g3483" transform="translate(550.659574, 0.524691)">
                                <g id="g100" transform="translate(0.226936, 9.993154)">
                                    <path d="M20.1276596,1.52469136 C17.7931915,0.55787037 15.353617,0.0772222222 12.7978723,0.0772222222 C8.68765957,0.0772222222 5.52340426,1.3037037 3.32170213,3.75666667 C1.11446809,6.21515432 0.0136170213,9.84487654 0.0136170213,14.651358 C0.0136170213,16.9772531 0.31787234,19.0821605 0.926382979,20.9660802 C1.54042553,22.85 2.40340426,24.4466358 3.53191489,25.7615123 C4.66042553,27.0708642 6.02680851,28.0874074 7.63106383,28.8000926 C9.22978723,29.5072531 11.0276596,29.866358 13.0246809,29.866358 C14.3744681,29.866358 15.6302128,29.7448148 16.786383,29.5183025 C17.9370213,29.2862654 19.06,28.9382099 20.1276596,28.4630864 L20.1276596,24.568179 C19.0765957,25.1482716 17.9812766,25.5847222 16.847234,25.8941049 C15.7242553,26.197963 14.4906383,26.3471296 13.1519149,26.3471296 C11.7910638,26.3471296 10.5519149,26.0929938 9.44553191,25.5791975 C8.33914894,25.0709259 7.3987234,24.3306173 6.62978723,23.3582716 C5.86085106,22.3859259 5.26340426,21.203642 4.84297872,19.8003704 C4.43361702,18.3970988 4.22340426,16.800463 4.22340426,15.0049383 C4.22340426,11.2370988 4.98680851,8.39740741 6.51914894,6.48033951 C8.04595745,4.57432099 10.2919149,3.61854938 13.2459574,3.61854938 C14.4906383,3.61854938 15.6855319,3.75666667 16.8251064,4.04947531 C17.9702128,4.34228395 19.0765957,4.74006173 20.1276596,5.26490741 L20.1276596,1.52469136 Z" id="path102"></path>
                                </g>
                                <g id="g104" transform="translate(25.208553, 10.021914)">
                                    <path d="M17.1276596,11.5740741 C17.1276596,12.9497222 16.9782979,14.1596296 16.6685106,15.1872222 C16.3642553,16.2203395 15.927234,17.0766667 15.3685106,17.7672531 C14.8042553,18.4578395 14.112766,18.9771605 13.3051064,19.325216 C12.4974468,19.6732716 11.5957447,19.844537 10.6,19.844537 C9.44382979,19.844537 8.45361702,19.6235494 7.6293617,19.1705247 C6.79957447,18.7175 6.13021277,18.1153086 5.59914894,17.3584259 C5.06808511,16.6015432 4.68638298,15.7231173 4.44297872,14.7176235 C4.19404255,13.723179 4.07787234,12.667963 4.07787234,11.5740741 C4.07787234,10.1929012 4.22723404,8.98299383 4.53148936,7.94987654 C4.83021277,6.90570988 5.26723404,6.04385802 5.83702128,5.3532716 C6.4012766,4.66820988 7.08170213,4.1433642 7.87829787,3.80083333 C8.68595745,3.44725309 9.58765957,3.27598765 10.6,3.27598765 C11.7561702,3.27598765 12.7519149,3.5025 13.5706383,3.95552469 C14.3948936,4.40302469 15.0753191,5.01074074 15.606383,5.76762346 C16.126383,6.52450617 16.513617,7.4029321 16.7625532,8.40290123 C17.0059574,9.40287037 17.1276596,10.4636111 17.1276596,11.5740741 M21.0940426,11.7508642 C21.0940426,10.0161111 20.8451064,8.425 20.3582979,6.97753086 C19.8659574,5.53006173 19.1578723,4.29805556 18.2395745,3.26493827 C17.3212766,2.23734568 16.1982979,1.43074074 14.8817021,0.867222222 C13.5540426,0.292654321 12.0548936,0.00537037037 10.3731915,0.00537037037 C8.77446809,0.00537037037 7.33617021,0.253981481 6.06382979,0.751203704 C4.79702128,1.24842593 3.71829787,1.97768519 2.8387234,2.94450617 C1.95914894,3.90580247 1.2787234,5.0991358 0.814042553,6.52450617 C0.343829787,7.94987654 0.111489362,9.58518519 0.111489362,11.4414815 C0.111489362,13.1762346 0.354893617,14.7562963 0.847234043,16.1871914 C1.33404255,17.6180864 2.03659574,18.8500926 2.96042553,19.8832099 C3.8787234,20.9108025 5.00723404,21.7118827 6.32382979,22.2809259 C7.64042553,22.8554938 9.14510638,23.1427778 10.8212766,23.1427778 C12.4255319,23.1427778 13.8638298,22.8941667 15.1306383,22.3969444 C16.4029787,21.8941975 17.4761702,21.170463 18.3612766,20.2091667 C19.246383,19.2589198 19.9212766,18.0711111 20.3914894,16.6457407 C20.8561702,15.2203704 21.0940426,13.5850617 21.0940426,11.7508642" id="path106"></path>
                                </g>
                                <g id="g108" transform="translate(49.728936, 10.427824)">
                                    <path d="M18.1276596,0 L18.1276596,16.038179 C18.1276596,16.7342901 18.1055319,17.308858 18.0502128,17.7508333 C18.0004255,18.1983333 17.9229787,18.5463889 17.8068085,18.8060494 C17.6961702,19.0657099 17.5523404,19.2480247 17.3808511,19.3529938 C17.2148936,19.4524383 17.0046809,19.5076852 16.7502128,19.5076852 C16.4514894,19.5076852 16.1748936,19.4192901 15.9259574,19.2369753 C15.6770213,19.0601852 15.4059574,18.7729012 15.112766,18.3751235 C14.8195745,17.971821 14.5097872,17.4414506 14.1502128,16.7840123 C13.807234,16.1210494 13.3978723,15.3089198 12.9221277,14.3476235 L12.9221277,0 L9.37617021,0 L9.37617021,15.6127778 C9.37617021,16.4304321 9.35404255,17.0933951 9.2987234,17.596142 C9.24893617,18.0988889 9.16595745,18.4966667 9.04978723,18.7729012 C8.94468085,19.0546605 8.79531915,19.2480247 8.61829787,19.3529938 C8.4412766,19.4524383 8.23106383,19.5076852 7.97106383,19.5076852 C7.70553191,19.5076852 7.45106383,19.4358642 7.21319149,19.2866975 C6.97531915,19.1375309 6.71531915,18.8723457 6.42765957,18.4856173 C6.13446809,18.0988889 5.80808511,17.5740432 5.45404255,16.9055556 C5.10553191,16.2370679 4.67404255,15.3862654 4.18723404,14.3476235 L4.18723404,0 L0.624680851,0 L0.624680851,22.3308025 L3.58425532,22.3308025 L3.76680851,18.0823148 C4.15404255,18.9331173 4.52468085,19.6513272 4.88978723,20.2424691 C5.25489362,20.8336111 5.62553191,21.3087346 6.01829787,21.6788889 C6.4,22.0379938 6.81489362,22.3087037 7.24638298,22.4744444 C7.68893617,22.6512346 8.17574468,22.7341049 8.70680851,22.7341049 C9.91829787,22.7341049 10.8255319,22.3418519 11.4506383,21.551821 C12.0702128,20.7673148 12.3855319,19.5518827 12.3855319,17.9055247 C12.7395745,18.6789815 13.093617,19.3640432 13.4255319,19.9607099 C13.7740426,20.5684259 14.1391489,21.0656481 14.5374468,21.48 C14.9302128,21.8833025 15.3617021,22.1982099 15.8374468,22.4136728 C16.3131915,22.6291358 16.8608511,22.7341049 17.4859574,22.7341049 C20.2906383,22.7341049 21.6957447,20.5794753 21.6957447,16.2591667 L21.6957447,0 L18.1276596,0 Z" id="path110"></path>
                                </g>
                                <g id="g112" transform="translate(74.811745, 10.427824)">
                                    <path d="M18.1276596,0 L18.1276596,16.038179 C18.1276596,16.7342901 18.1,17.308858 18.0446809,17.7508333 C18.0004255,18.1983333 17.9174468,18.5463889 17.8068085,18.8060494 C17.6961702,19.0657099 17.5523404,19.2480247 17.3808511,19.3529938 C17.2148936,19.4524383 16.9991489,19.5076852 16.7502128,19.5076852 C16.4459574,19.5076852 16.1748936,19.4192901 15.9259574,19.2369753 C15.6714894,19.0601852 15.4004255,18.7729012 15.107234,18.3751235 C14.8195745,17.971821 14.5042553,17.4414506 14.1502128,16.7840123 C13.8017021,16.1210494 13.3923404,15.3089198 12.9165957,14.3476235 L12.9165957,0 L9.37617021,0 L9.37617021,15.6127778 C9.37617021,16.4304321 9.34851064,17.0933951 9.29319149,17.596142 C9.24893617,18.0988889 9.16595745,18.4966667 9.04978723,18.7729012 C8.93914894,19.0546605 8.79531915,19.2480247 8.61276596,19.3529938 C8.4412766,19.4524383 8.22553191,19.5076852 7.97106383,19.5076852 C7.70553191,19.5076852 7.45106383,19.4358642 7.21319149,19.2866975 C6.97531915,19.1375309 6.71531915,18.8723457 6.42212766,18.4856173 C6.13446809,18.0988889 5.80808511,17.5740432 5.45404255,16.9055556 C5.10553191,16.2370679 4.67404255,15.3862654 4.18170213,14.3476235 L4.18170213,0 L0.619148936,0 L0.619148936,22.3308025 L3.58425532,22.3308025 L3.7612766,18.0823148 C4.15404255,18.9331173 4.51914894,19.6513272 4.88425532,20.2424691 C5.25489362,20.8336111 5.62553191,21.3087346 6.01276596,21.6788889 C6.4,22.0379938 6.8093617,22.3087037 7.24638298,22.4744444 C7.68340426,22.6512346 8.17021277,22.7341049 8.70680851,22.7341049 C9.91276596,22.7341049 10.8255319,22.3418519 11.4451064,21.551821 C12.0702128,20.7673148 12.3855319,19.5518827 12.3855319,17.9055247 C12.7395745,18.6789815 13.0880851,19.3640432 13.4255319,19.9607099 C13.7685106,20.5684259 14.133617,21.0656481 14.5374468,21.48 C14.9246809,21.8833025 15.3561702,22.1982099 15.8319149,22.4136728 C16.3076596,22.6291358 16.8608511,22.7341049 17.4859574,22.7341049 C20.2906383,22.7341049 21.6957447,20.5794753 21.6957447,16.2591667 L21.6957447,0 L18.1276596,0 Z" id="path114"></path>
                                </g>
                                <g id="g116" transform="translate(101.914809, 9.903133)">
                                    <path d="M18.1276596,0.524691358 L14.653617,0.524691358 L14.5208511,4.12679012 C13.8514894,3.35885802 13.2153191,2.71246914 12.6178723,2.20419753 C12.0148936,1.69040123 11.4174468,1.28157407 10.8255319,0.966666667 C10.2280851,0.657283951 9.63617021,0.436296296 9.02765957,0.314753086 C8.43021277,0.187685185 7.79957447,0.12691358 7.13021277,0.12691358 C4.82893617,0.12691358 3.08638298,0.800925926 1.91361702,2.14895062 C0.740851064,3.49697531 0.154468085,5.53558642 0.154468085,8.26478395 L0.154468085,22.8554938 L4.02680851,22.8554938 L4.02680851,8.57969136 C4.02680851,5.15438272 5.32680851,3.4362037 7.90468085,3.4362037 C8.38042553,3.4362037 8.84510638,3.50802469 9.2987234,3.64614198 C9.75234043,3.78978395 10.2280851,4.03839506 10.7259574,4.38092593 C11.2238298,4.73450617 11.7548936,5.20410494 12.3246809,5.79524691 C12.9,6.39191358 13.5417021,7.13774691 14.2553191,8.0437963 L14.2553191,22.8554938 L18.1276596,22.8554938 L18.1276596,0.524691358 Z" id="path118"></path>
                                </g>
                                <g id="g120" transform="translate(127.152085, 10.135170)">
                                    <path d="M0,22.6234568 L3.44638298,22.6234568 L3.60680851,19.0268827 C4.25957447,19.7892901 4.89574468,20.435679 5.4987234,20.9439506 C6.10723404,21.4577469 6.71021277,21.8665741 7.29106383,22.1814815 C7.87744681,22.4963889 8.47489362,22.7118519 9.08893617,22.8389198 C9.69191489,22.9659877 10.3280851,23.0267593 10.9753191,23.0267593 C13.2765957,23.0267593 15.0191489,22.3472222 16.2029787,20.9881481 C17.3868085,19.6345988 17.9731915,17.590463 17.9731915,14.8667901 L17.9731915,0.292654321 L14.1008511,0.292654321 L14.1008511,14.5518827 C14.1008511,16.2976852 13.7689362,17.5959877 13.1161702,18.430216 C12.4634043,19.2754938 11.4897872,19.6898457 10.2008511,19.6898457 C9.72510638,19.6898457 9.26042553,19.6180247 8.80680851,19.4799074 C8.35319149,19.3362654 7.88297872,19.093179 7.3906383,18.7451235 C6.90382979,18.3915432 6.37276596,17.9219444 5.80297872,17.3308025 C5.22765957,16.7396605 4.58595745,15.9993519 3.87234043,15.1098765 L3.87234043,0.292654321 L0,0.292654321 L0,22.6234568 Z" id="path122"></path>
                                </g>
                                <g id="g124" transform="translate(152.143830, 9.976488)">
                                    <path d="M9.06382979,32.1481481 C9.49531915,32.1481481 9.89361702,32.0708025 10.2642553,31.9161111 C10.6348936,31.7614198 10.9612766,31.5404321 11.2378723,31.2586728 C11.5034043,30.9769136 11.7191489,30.6509568 11.8795745,30.2918519 C12.0344681,29.9327469 12.1119149,29.5294444 12.1119149,29.0985185 C12.1119149,28.6841667 12.0344681,28.2974383 11.8795745,27.9217593 C11.7191489,27.5516049 11.5034043,27.2256481 11.2378723,26.9438889 C10.9612766,26.6621296 10.6348936,26.4466667 10.2642553,26.2864506 C9.89361702,26.1317593 9.49531915,26.0544136 9.06382979,26.0544136 C8.63234043,26.0544136 8.23404255,26.1317593 7.85787234,26.2864506 C7.48723404,26.4466667 7.16085106,26.6621296 6.88978723,26.9438889 C6.6187234,27.2256481 6.40297872,27.5516049 6.24255319,27.9217593 C6.09319149,28.2974383 6.01021277,28.6841667 6.01021277,29.0985185 C6.01021277,29.5294444 6.09319149,29.9327469 6.24255319,30.2918519 C6.40297872,30.6509568 6.6187234,30.9769136 6.88978723,31.2586728 C7.16085106,31.5404321 7.48723404,31.7614198 7.85787234,31.9161111 C8.23404255,32.0708025 8.63234043,32.1481481 9.06382979,32.1481481 L9.06382979,32.1481481 Z M7.70297872,19.585 L1.09234043,19.585 L1.09234043,22.7837963 L11.6251064,22.7837963 L11.6251064,3.67941358 L18.28,3.67941358 L18.28,0.452993827 L0.356595745,0.452993827 L0.356595745,3.67941358 L7.70297872,3.67941358 L7.70297872,19.585 L7.70297872,19.585 Z" id="path126"></path>
                                </g>
                                <g id="g128" transform="translate(174.200851, 9.216383)">
                                    <path d="M21.1276596,1.52469136 C20.253617,1.29817901 19.346383,1.14348765 18.4114894,1.04404321 C17.4765957,0.950123457 16.5251064,0.900401235 15.5625532,0.900401235 C12.7523404,0.900401235 10.6557447,1.53574074 9.27276596,2.80089506 C7.89531915,4.07157407 7.2093617,6.01626543 7.2093617,8.64049383 L7.2093617,20.2920679 L0.947234043,20.2920679 L0.947234043,23.5405864 L7.2093617,23.5405864 L7.2093617,29.6840432 L11.0817021,30.6840123 L11.0817021,23.5405864 L21.1276596,23.5405864 L21.1276596,20.2920679 L11.0817021,20.2920679 L11.0817021,8.95540123 C11.0817021,7.35324074 11.5131915,6.15438272 12.3651064,5.35882716 C13.2170213,4.5687963 14.472766,4.17101852 16.1378723,4.17101852 C16.8514894,4.17101852 17.6314894,4.22626543 18.4778723,4.33675926 C19.3242553,4.44725309 20.2093617,4.62404321 21.1276596,4.86160494 L21.1276596,1.52469136 Z" id="path130"></path>
                                </g>
                                <g id="g132" transform="translate(199.620979, 0.610478)">
                                    <path d="M22.6595745,32.1481481 L15.0421277,12.1763889 C14.2510638,10.1433025 13.4378723,8.39197531 12.6080851,6.9279321 C11.7617021,5.4583642 10.8434043,4.25398148 9.85319149,3.30925926 C8.85744681,2.37006173 7.76765957,1.67395062 6.57829787,1.23197531 C5.38893617,0.784475309 4.0612766,0.563487654 2.58978723,0.563487654 C2.20255319,0.563487654 1.85404255,0.569012346 1.54425532,0.58558642 C1.22893617,0.602160494 0.891489362,0.624259259 0.520851064,0.651882716 L0.520851064,4.17111111 C0.847234043,4.12691358 1.2012766,4.08271605 1.58297872,4.04404321 C1.97574468,4.00537037 2.38510638,3.9887963 2.81659574,3.9887963 C3.53021277,3.9887963 4.18851064,4.09376543 4.80255319,4.3037037 C5.42212766,4.50811728 6.00297872,4.85064815 6.55617021,5.31472222 C7.10382979,5.78432099 7.63489362,6.38651235 8.13829787,7.12682099 C8.64170213,7.86712963 9.13404255,8.76765432 9.60978723,9.81734568 L0.675744681,32.1481481 L5.08468085,32.1481481 L10.7438298,17.3806481 L11.8834043,13.911142 L13.1668085,17.4690432 L18.4055319,32.1481481 L22.6595745,32.1481481 Z" id="path134"></path>
                                </g>
                            </g>
                            <g id="g136" transform="translate(779.217191, 10.460420)">
                                <polygon id="path138" points="0 22.6234568 2.40638298 25.0929938 17.3757447 12.612716 2.40638298 0.137962963 0 2.58540123 12.1370213 12.5740432"></polygon>
                            </g>
                        </g>
                        <g id="g3599" transform="translate(-0.000000, 85.395062)">
                            <g id="g140" transform="translate(25.928213, 48.311247)" fill="#A7A5A6">
                                <path d="M0.531914894,1.52469136 C1.42255319,1.27608025 2.31319149,1.06614198 3.19829787,0.828580247 L55.6076596,58.6555247 C54.672766,58.9925309 53.7378723,59.3350617 52.8029787,59.6831173 L0.233191489,1.66833333 C0.266382979,1.64070988 0.299574468,1.61308642 0.338297872,1.58546296 C0.404680851,1.56888889 0.465531915,1.54679012 0.531914894,1.52469136" id="path142"></path>
                            </g>
                            <g id="g144" transform="translate(163.918638, 72.653528)" fill="#A7A5A6">
                                <path d="M4.53191489,36.6728395 L58.4791489,0.944660494 L58.4791489,4.24842593 L0.04,42.9544136 C1.66085106,40.9655247 3.16,38.8771914 4.53191489,36.6728395" id="path146"></path>
                            </g>
                            <g id="g148" transform="translate(277.918723, 63.003580)" fill="#A7A5A6">
                                <path d="M23.6595745,46.7222222 L0.757446809,1.87830247 C1.6093617,1.50814815 2.39489362,1.0275 3.18595745,0.557901235 L26.7629787,46.7222222 L23.6595745,46.7222222 Z" id="path150"></path>
                            </g>
                            <g id="g152" transform="translate(319.680426, 146.515920)" fill="#A7A5A6">
                                <path d="M30.1914894,57.7716049 L0.767234043,0.154598765 L3.8706383,0.154598765 L32.62,56.4512037 C31.773617,56.8268827 30.9880851,57.3020062 30.1914894,57.7716049" id="path154"></path>
                            </g>
                            <g id="g156" transform="translate(370.052340, 143.997182)" fill="#A7A5A6">
                                <path d="M1.70530257e-13,58.7716049 L28.207234,0.370092593 C29.0148936,0.817592593 29.8004255,1.29271605 30.6578723,1.6462963 L2.4506383,60.0478086 C1.64851064,59.594784 0.857446809,59.1251852 1.70530257e-13,58.7716049" id="path158"></path>
                            </g>
                            <g id="g160" transform="translate(458.217234, 122.429892)" fill="#A7A5A6">
                                <path d="M132.765957,3.52469136 L0.0663829787,3.52469136 C0.0608510638,3.08271605 0.0331914894,2.66283951 0.0331914894,2.2208642 C0.0331914894,1.71811728 0.0663829787,1.25404321 0.0663829787,0.762345679 L132.765957,0.762345679 C132.738298,1.22641975 132.62766,1.67391975 132.62766,2.14351852 C132.62766,2.61311728 132.738298,3.06061728 132.765957,3.52469136" id="path162"></path>
                            </g>
                            <g id="g164" transform="translate(661.025404, 69.699475)" fill="#A7A5A6">
                                <path d="M90.0425532,3.52469136 L0.502978723,37.9490432 C0.574893617,36.9214506 0.652340426,35.8993827 0.735319149,34.8994136 L89.0523404,0.944660494 C89.3897872,1.79546296 89.7217021,2.64626543 90.0425532,3.52469136" id="path166"></path>
                            </g>
                            <g id="g168" transform="translate(725.224340, 130.856182)" fill="#A7A5A6">
                                <path d="M32.1914894,8.04938272 L3.70212766,72.5059568 C2.51276596,73.0418519 1.29574468,73.5390741 0.0344680851,73.97 L32.5234043,0.480555556 C32.4514894,3.07716049 32.3297872,5.58537037 32.1914894,8.04938272" id="path170"></path>
                            </g>
                            <g id="g172" transform="translate(165.516468, 37.241914)" fill="#A7A5A6">
                                <path d="M2.53191489,3.52469136 C1.98978723,2.57444444 1.48085106,1.59657407 0.894468085,0.679475309 L56.8829787,3.23188272 L56.8829787,5.99975309 L2.53191489,3.52469136 Z" id="path174"></path>
                            </g>
                            <g id="g176" transform="translate(288.583277, 54.039216)" fill="#A7A5A6">
                                <path d="M1.13686838e-13,2.52469136 C0.50893617,1.75675926 0.907234043,0.922530864 1.32212766,0.0993518519 L101.759574,57.9815432 C101.245106,58.7439506 100.846809,59.5837037 100.431915,60.4124074 L1.13686838e-13,2.52469136 Z" id="path178"></path>
                            </g>
                            <g id="g180" transform="translate(469.829532, 131.587006)" fill="#A7A5A6">
                                <path d="M122.234043,2.84217094e-14 C122.521702,0.883950617 122.814894,1.75132716 123.213191,2.58555556 L1.96468085,50.2967901 C1.4612766,49.512284 0.941276596,48.7333025 0.47106383,47.9156481 L122.234043,2.84217094e-14 Z" id="path182"></path>
                            </g>
                            <g id="g184" transform="translate(381.669617, 196.758475)" fill="#A7A5A6">
                                <path d="M44.787234,0 C45.2519149,0.823179012 45.7940426,1.57453704 46.2753191,2.38114198 L1.33957447,20.065679 C1.05191489,19.1817284 0.753191489,18.3088272 0.360425532,17.4801235 L44.787234,0 Z" id="path186"></path>
                            </g>
                            <g id="g188" transform="translate(267.507064, 192.256497)" fill="#A7A5A6">
                                <polygon id="path190" points="32.1914894 13.5740741 0.460425532 3.56885802 0.460425532 0.673919753 41.3744681 13.5740741"></polygon>
                            </g>
                            <g id="g192" transform="translate(135.889362, 150.939448)" fill="#A7A5A6">
                                <path d="M86.5106383,27.6234568 L86.5106383,30.5183951 L0.594468085,3.43083333 C0.926382979,2.57450617 1.19191489,1.69608025 1.4187234,0.795555556 L86.5106383,27.6234568 Z" id="path194"></path>
                            </g>
                            <g id="g3583" transform="translate(397.297872, 1.000000)">
                                <g id="g204" transform="translate(12.196851, 0.886682)" fill="#49929F">
                                    <path d="M48.787234,124.067901 C48.8757447,135.686327 50.0540426,146.398704 52.3940426,156.166358 C54.3246809,164.210309 57.1514894,171.331636 60.8080851,177.618735 C61.2782979,178.436389 61.7982979,179.209846 62.2961702,179.999877 C62.7995745,180.784383 63.2531915,181.618611 63.7897872,182.375494 C68.9565957,189.717809 75.5451064,195.41929 83.5608511,199.485463 C91.5821277,203.551636 101.240851,205.584722 112.542553,205.584722 C120.198723,205.584722 128.701277,204.551605 138.061277,202.490895 C147.415745,200.42466 157.257021,196.966204 167.590638,192.11 L167.590638,236.528519 C162.484681,238.224599 157.561277,239.622346 152.825957,240.716235 C148.085106,241.810123 143.405106,242.688549 138.791489,243.357037 C134.17234,244.02 129.464681,244.473025 124.662979,244.721636 C119.866809,244.964722 114.733191,245.080741 109.26766,245.080741 C92.3731915,245.080741 77.1548936,242.263148 63.607234,236.616914 C50.0540426,230.981728 38.5421277,222.783086 29.0714894,212.048611 C25.1161702,207.568086 21.6421277,202.568241 18.4502128,197.253488 C17.9689362,196.446883 17.4268085,195.695525 16.9621277,194.872346 C13.1285106,188.071451 9.84808511,180.657315 7.19276596,172.547068 C4.44340426,164.138488 2.49617021,155.033796 1.2293617,145.337963 C13.167234,144.614228 22.6765957,134.785802 22.6765957,122.686728 C22.6765957,110.327994 12.7634043,100.28963 0.471489362,99.9581481 C1.52255319,88.2071296 3.48638298,77.3842593 6.55659574,67.6939506 C11.2365957,52.9485494 18.1017021,40.6063889 27.1574468,30.6564198 C36.2076596,20.7064506 47.3212766,13.2094444 60.5093617,8.17645062 C73.6919149,3.14345679 88.8493617,0.624197531 105.981702,0.624197531 C116.669362,0.624197531 126.969787,1.65179012 136.877447,3.7125 C146.779574,5.77320988 157.013617,8.93333333 167.590638,13.181821 L167.590638,55.0424074 C163.574468,53.224784 159.231915,51.434784 154.551915,49.6779321 C149.871915,47.9155556 145.136596,46.4017901 140.340426,45.1255864 C135.538723,43.8549074 130.797872,42.8162654 126.117872,42.0317593 C121.443404,41.2417284 117.100851,40.8494753 113.090213,40.8494753 C101.910213,40.8494753 92.2459574,42.7002469 84.1140426,46.4017901 C75.9710638,50.1033333 69.2829787,55.4678086 64.066383,62.5117901 C58.8331915,69.5447222 54.9774468,78.1300926 52.4880851,88.2734259 C50.087234,98.0024074 48.8812766,109.040741 48.787234,121.305556 C48.787234,121.797253 48.7540426,122.261327 48.7540426,122.764074 C48.7540426,123.206049 48.7817021,123.625926 48.787234,124.067901" id="path206"></path>
                                </g>
                                <g id="g220" transform="translate(0.151149, 110.999336)" fill="#A7A5A6">
                                    <path d="M23.6595745,12.5740741 C23.6595745,19.0600617 18.3987234,24.3140432 11.9042553,24.3140432 C5.40978723,24.3140432 0.14893617,19.0600617 0.14893617,12.5740741 C0.14893617,6.09361111 5.40978723,0.834104938 11.9042553,0.834104938 C18.3987234,0.834104938 23.6595745,6.09361111 23.6595745,12.5740741" id="path222"></path>
                                </g>
                            </g>
                            <g id="g3567" transform="translate(-0.000000, 0.000000)">
                                <g id="g196" transform="translate(10.383660, 0.628648)" fill="#49929F">
                                    <path d="M159.425532,43.1975309 C164.227234,52.7828704 166.622553,64.0698148 166.622553,77.0583642 C166.622553,86.7652469 164.957447,95.1738272 161.61617,102.267531 C160.554043,104.51608 159.342553,106.637562 158.064681,108.698272 C156.698298,110.902623 155.193617,112.990957 153.578298,114.979846 C151.935319,116.996358 150.209362,118.946574 148.306383,120.747623 C142.78,125.962932 136.517872,130.393735 129.536596,134.034506 C128.197872,134.725093 126.825957,135.338333 125.481702,136.001296 C121.841702,128.239105 113.997447,122.808333 104.858723,122.808333 C92.273617,122.808333 82.0395745,133.029012 82.0395745,145.597685 C82.0395745,148.199815 82.5651064,150.669352 83.3782979,153.000772 C77.6914894,155.144352 72.4029787,157.387377 67.7506383,159.790617 C62.2187234,162.641358 57.7821277,165.856728 54.4408511,169.436728 C51.0995745,173.016728 49.4289362,177.29284 49.4289362,182.265062 C49.4289362,186.275988 50.22,189.911235 51.8021277,193.192901 C53.3787234,196.469043 55.9289362,199.225864 59.4582979,201.474414 C62.9765957,203.717438 67.4740426,205.479815 72.9451064,206.750494 C78.4106383,208.021173 85.0931915,208.662037 92.992766,208.662037 C97.4846809,208.662037 102.225532,208.418951 107.209787,207.932778 C112.188511,207.446605 117.139574,206.750494 122.062979,205.83892 C126.980851,204.93287 131.749362,203.87213 136.368511,202.656698 C140.98766,201.441265 145.241702,200.109815 149.130638,198.651296 L149.130638,239.605833 C145.241702,240.578179 140.954468,241.517377 136.28,242.428951 C131.6,243.340525 126.737447,244.130556 121.697872,244.793519 C116.652766,245.462006 111.55234,246.003426 106.391064,246.434352 C101.224255,246.859753 96.2731915,247.069691 91.5323404,247.069691 C75.373617,247.069691 61.5825532,245.21892 50.1591489,241.517377 C38.7357447,237.815833 29.3812766,232.843611 22.0902128,226.595185 C14.7991489,220.341235 9.45531915,213.032068 6.05319149,204.656636 C2.65106383,196.281204 0.952765957,187.425123 0.952765957,178.08287 C0.952765957,167.889815 2.61787234,159.182901 5.95914894,151.96213 C9.30042553,144.735833 13.7093617,138.520556 19.1748936,133.305247 C24.6459574,128.084414 30.8693617,123.719907 37.8561702,120.200679 C44.8429787,116.675926 51.9514894,113.521327 59.1817021,110.731358 C62.2851064,109.5325 65.2834043,108.499383 68.3480851,107.366821 C69.2829787,107.018765 70.2178723,106.676235 71.147234,106.339228 C74.2617021,105.201142 77.4425532,103.969136 80.507234,102.90287 C87.4940426,100.477531 93.7229787,97.7483333 99.1885106,94.7152778 C104.659574,91.6822222 109.062979,88.1906173 112.404255,84.2459877 C115.745532,80.301358 117.41617,75.4175309 117.41617,69.5889815 C117.41617,65.3460185 116.564255,61.4621605 114.860426,57.9429321 C113.162128,54.418179 110.429362,51.3906481 106.662128,48.8382407 C102.894894,46.2968827 98.0323404,44.2914198 92.08,42.8384259 C86.1276596,41.3799074 78.8919149,40.6506481 70.3893617,40.6506481 C64.6804255,40.6506481 58.7889362,41.0097531 52.7093617,41.7390123 C46.6353191,42.4682716 40.5280851,43.4737654 34.3931915,44.7444444 C29.1544681,45.8383333 23.9434043,47.1090123 18.7434043,48.512284 C17.8582979,48.7498457 16.9676596,48.959784 16.0770213,49.2083951 C16.0106383,49.2304938 15.9497872,49.2525926 15.8834043,49.2691667 C21.0446809,45.0869753 24.413617,38.7833025 24.413617,31.6454012 C24.413617,19.7617901 15.2195745,10.0825309 3.58042553,9.05493827 C13.3719149,6.39756173 23.246383,4.40314815 33.2093617,3.1545679 C44.8761702,1.69604938 56.9634043,0.966790123 69.4821277,0.966790123 C83.5774468,0.966790123 96.5774468,2.49160494 108.48766,5.5191358 C120.39234,8.55219136 130.659574,13.1929321 139.28383,19.441358 C146.060426,24.3583333 151.614468,30.3305247 156.028936,37.2971605 C156.609787,38.2142593 157.124255,39.1866049 157.666383,40.1368519 C158.247234,41.1644444 158.894468,42.1367901 159.425532,43.1975309" id="path198"></path>
                                </g>
                                <g id="g224" transform="translate(0.072766, 19.700528)" fill="#A7A5A6">
                                    <path d="M23.6595745,12.5740741 C23.6595745,19.0600617 18.3987234,24.3140432 11.9042553,24.3140432 C5.41531915,24.3140432 0.14893617,19.0600617 0.14893617,12.5740741 C0.14893617,6.08808642 5.41531915,0.834104938 11.9042553,0.834104938 C18.3987234,0.834104938 23.6595745,6.08808642 23.6595745,12.5740741" id="path226"></path>
                                </g>
                                <g id="g228" transform="translate(103.485957, 133.650049)" fill="#A7A5A6">
                                    <path d="M-1.42108547e-14,12.5740741 C-1.42108547e-14,6.09361111 5.26085106,0.834104938 11.7553191,0.834104938 C18.2442553,0.834104938 23.5106383,6.09361111 23.5106383,12.5740741 C23.5106383,19.0600617 18.2442553,24.3140432 11.7553191,24.3140432 C5.26085106,24.3140432 -1.42108547e-14,19.0600617 -1.42108547e-14,12.5740741" id="path230"></path>
                                </g>
                            </g>
                            <g id="g3575" transform="translate(220.808511, 5.524691)">
                                <g id="g200" transform="translate(0.974340, 0.126454)" fill="#49929F">
                                    <path d="M47.787234,15.5740741 C35.2021277,15.5740741 24.9680851,25.8002778 24.9680851,38.3634259 C24.9680851,50.3796296 34.3612766,60.147284 46.1829787,60.9925617 L46.1829787,104.074105 L79.7948936,104.074105 L82.8982979,104.074105 L139.500851,104.074105 L139.500851,141.023241 L101.76766,141.023241 L98.6642553,141.023241 L46.1829787,141.023241 L46.1829787,187.281481 L46.1829787,190.17642 L46.1829787,200.181636 L77.9140426,200.181636 L87.0970213,200.181636 L125.80383,200.181636 C120.371489,204.347253 116.808936,210.833241 116.808936,218.186605 C116.808936,226.760926 121.627234,234.152963 128.652766,238.042346 L0.616595745,238.042346 L0.616595745,175.806698 L0.616595745,172.911759 L0.616595745,71.2519136 L0.616595745,67.9426235 L0.616595745,37.5899691 L0.616595745,34.8220988 L0.616595745,0.132561728 L144.053617,0.132561728 L144.053617,37.9987963 L70.5676596,37.9987963 C70.3685106,25.6013889 60.2451064,15.5740741 47.787234,15.5740741" id="path202"></path>
                                </g>
                                <g id="g232" transform="translate(36.165830, 26.606392)" fill="#A7A5A6">
                                    <path d="M12.5957447,23.6234568 C6.1012766,23.6234568 0.840425532,18.3694753 0.840425532,11.8834877 C0.840425532,5.3975 6.1012766,0.143518519 12.5957447,0.143518519 C19.0846809,0.143518519 24.3510638,5.3975 24.3510638,11.8834877 C24.3510638,18.3694753 19.0846809,23.6234568 12.5957447,23.6234568" id="path234"></path>
                                </g>
                                <g id="g236" transform="translate(128.006681, 206.572537)" fill="#A7A5A6">
                                    <path d="M12.5957447,0 C19.0846809,0 24.3510638,5.25950617 24.3510638,11.7399691 C24.3510638,18.2259568 19.0846809,23.4799383 12.5957447,23.4799383 C6.1012766,23.4799383 0.840425532,18.2259568 0.840425532,11.7399691 C0.840425532,5.25950617 6.1012766,0 12.5957447,0" id="path238"></path>
                                </g>
                            </g>
                            <g id="g3589" transform="translate(600.978723, 0.000000)">
                                <g id="g208" transform="translate(12.858340, 0.653571)" fill="#49929F">
                                    <path d="M117.702128,46.7222222 C111.567234,43.1477469 104.18766,41.3522222 95.5578723,41.3522222 C78.4255319,41.3522222 66.0617021,48.2691358 58.4719149,62.102963 C52.9178723,72.2131481 49.4161702,86.1906173 47.9280851,103.946975 C47.8395745,104.946944 47.7621277,105.969012 47.6957447,106.996605 C47.2974468,112.670463 47.0761702,118.670278 47.0761702,125.089969 C47.0761702,138.194537 47.9889362,149.812963 49.8144681,159.945247 C51.6344681,170.077531 54.5165957,178.607654 58.4719149,185.524568 C62.4161702,192.435957 67.4280851,197.684414 73.5076596,201.264414 C79.5761702,204.844414 86.933617,206.634414 95.5578723,206.634414 C101.421702,206.634414 106.677021,205.767037 111.417872,204.170401 C112.684681,203.745 113.901702,203.247778 115.085532,202.706358 C122.525957,199.314198 128.445106,193.756358 132.743404,185.883673 C138.822979,174.707222 142.413191,158.774012 143.580426,138.249784 C143.718723,135.791296 143.840426,133.277562 143.906809,130.680957 C143.973191,128.134074 144.045106,125.581667 144.045106,122.907716 C144.045106,109.797623 143.13234,98.1791975 141.306809,88.0469136 C140.283404,82.3620062 138.900426,77.2406173 137.229787,72.5722531 C136.914468,71.6938272 136.577021,70.8375 136.245106,69.9922222 C135.171915,67.329321 134.03234,64.7824383 132.743404,62.4731173 C128.854468,55.5562037 123.837021,50.2966975 117.702128,46.7222222 M156.01617,55.103179 C156.01617,67.6663272 166.244681,77.8925309 178.835319,77.8925309 C181.302553,77.8925309 183.642553,77.3953086 185.871915,76.6660494 C189.500851,90.7098148 191.425957,106.764568 191.425957,125.089969 C191.425957,164.889846 183.526383,195.170679 167.732766,215.915895 C155.468511,232.025895 138.468936,241.799074 116.833617,245.401173 C116.169787,233.434691 106.289787,223.871451 94.1417021,223.871451 C82.5412766,223.871451 73.0374468,232.605988 71.6157447,243.815586 C67.3285106,242.716173 63.1076596,241.439969 59.0195745,239.765988 C47.1702128,234.909784 36.8421277,227.445926 28.0297872,217.374414 C19.2174468,207.302901 12.2914894,194.44142 7.25191489,178.784444 C4.1706383,169.210154 2.14595745,158.387284 0.95106383,146.597593 C12.9995745,145.995401 22.6417021,136.100679 22.6417021,123.918735 C22.6417021,111.637346 12.8446809,101.659753 0.65787234,101.212253 C3.10297872,72.0695062 10.6208511,48.9762963 23.3829787,32.1591358 C39.1821277,11.3476235 62.7480851,0.94462963 94.0974468,0.94462963 C107.589787,0.94462963 120.257872,3.36996914 132.107234,8.22617284 C143.951064,13.0768519 154.273617,20.5407099 163.085957,30.6122222 C164.474468,32.1978086 165.730213,33.9712346 167.024681,35.700463 C160.452766,39.7003395 156.01617,46.8603395 156.01617,55.103179" id="path210"></path>
                                </g>
                                <g id="g212" transform="translate(179.096255, 43.871052)" fill="#A7A5A6">
                                    <path d="M12.5957447,23.6234568 C6.1012766,23.6234568 0.840425532,18.3694753 0.840425532,11.8834877 C0.840425532,5.3975 6.1012766,0.143518519 12.5957447,0.143518519 C19.0846809,0.143518519 24.3510638,5.3975 24.3510638,11.8834877 C24.3510638,18.3694753 19.0846809,23.6234568 12.5957447,23.6234568" id="path214"></path>
                                </g>
                                <g id="g216" transform="translate(0.087362, 112.833441)" fill="#A7A5A6">
                                    <path d="M12.5957447,0 C19.0902128,0 24.3510638,5.25950617 24.3510638,11.7399691 C24.3510638,18.2259568 19.0902128,23.4799383 12.5957447,23.4799383 C6.1012766,23.4799383 0.840425532,18.2259568 0.840425532,11.7399691 C0.840425532,5.25950617 6.1012766,0 12.5957447,0" id="path218"></path>
                                </g>
                                <g id="g240" transform="translate(94.830936, 235.577167)" fill="#A7A5A6">
                                    <path d="M12.1702128,0 C18.6646809,0 23.9255319,5.25950617 23.9255319,11.7399691 C23.9255319,18.2259568 18.6646809,23.4799383 12.1702128,23.4799383 C5.67574468,23.4799383 0.414893617,18.2259568 0.414893617,11.7399691 C0.414893617,5.25950617 5.67574468,0 12.1702128,0" id="path242"></path>
                                </g>
                            </g>
                        </g>
                    </g>
                </g>
            </g>
        </g>
    </g>
</svg>