<?xml version="1.0" encoding="UTF-8"?>
<svg id="Ebene_1" data-name="Ebene 1" xmlns="http://www.w3.org/2000/svg" viewBox="0 0 145.53 59.95">
  <defs>
    <style>
      .cls-1 {
        fill: none;
      }

      .cls-1, .cls-2, .cls-3 {
        stroke-width: 0px;
      }

      .cls-2 {
        fill: #40909f;
      }

      .cls-3 {
        fill: #b2b2b2;
      }
    </style>
  </defs>
  <g>
    <path class="cls-3" d="m2.43,58.64L0,56.92l2.42-1.75.3.31-2.05,1.44,2.06,1.4-.31.33Z"/>
    <path class="cls-3" d="m3.76,58.32v-.53c.45.17.88.26,1.31.26.74,0,1.11-.24,1.11-.72,0-.21-.07-.37-.22-.48-.15-.11-.45-.25-.9-.4-.44-.15-.75-.32-.94-.52s-.29-.47-.29-.79c0-.35.14-.62.41-.82.27-.2.64-.29,1.12-.29s.92.08,1.32.23l-.2.49c-.41-.16-.79-.23-1.14-.23-.62,0-.93.21-.93.63,0,.2.07.37.21.49s.42.26.86.4c.52.18.87.36,1.04.54.17.19.26.43.26.72,0,.38-.15.69-.44.9s-.71.33-1.24.33-1-.07-1.31-.21Z"/>
    <path class="cls-3" d="m9,58.53c-.46,0-.83-.16-1.12-.47-.29-.31-.44-.73-.44-1.25s.14-.94.43-1.25c.29-.3.67-.46,1.16-.46.46,0,.84.16,1.13.46.29.31.44.72.44,1.24s-.14.95-.43,1.25c-.29.31-.67.46-1.15.46Zm.01-.45c.65,0,.98-.42.98-1.26s-.33-1.25-.99-1.25-.98.42-.98,1.25.33,1.26.98,1.26Z"/>
    <path class="cls-3" d="m14.12,55.59h-1.23v2.88h-.58v-2.88h-1v-.33l1-.1v-.29c0-.39.1-.67.28-.84.19-.17.51-.26.95-.26.27,0,.54.04.8.1l-.13.43c-.22-.06-.44-.08-.65-.08-.26,0-.44.05-.53.15-.09.1-.14.27-.14.5v.31h1.23v.41Z"/>
    <path class="cls-3" d="m17.8,58.02v.41c-.27.06-.54.1-.8.1-.76,0-1.15-.34-1.15-1.03v-1.91h-.84v-.28l.84-.15.24-.86h.33v.88h1.39v.41h-1.39v1.91c0,.39.2.58.61.58.2,0,.45-.02.76-.06Z"/>
    <path class="cls-3" d="m20.89,58.47l-.41-1.79-.21-.99h-.02l-.21,1-.43,1.78h-.6l-.71-3.29h.51l.31,1.63c.07.37.13.76.18,1.18h.02c.06-.37.14-.73.21-1.07l.42-1.73h.61l.4,1.73c.09.39.16.75.21,1.07h.02c.07-.48.13-.88.19-1.18l.32-1.63h.5l-.71,3.29h-.62Z"/>
    <path class="cls-3" d="m24.91,58.47l-.12-.46h-.03c-.16.19-.33.33-.5.4s-.39.11-.66.11c-.34,0-.61-.09-.81-.26-.2-.17-.29-.41-.29-.72,0-.66.54-1.01,1.61-1.04l.64-.02v-.21c0-.47-.26-.71-.77-.71-.31,0-.66.08-1.04.25l-.2-.41c.41-.19.82-.29,1.21-.29.48,0,.83.09,1.04.26.21.17.32.45.32.84v2.26h-.41Zm-.15-1.61l-.51.02c-.41.02-.71.08-.88.18-.17.11-.26.27-.26.49,0,.36.21.53.63.53.31,0,.56-.08.74-.25.18-.16.28-.39.28-.69v-.3Z"/>
    <path class="cls-3" d="m29.18,55.25l-.16.5c-.26-.09-.5-.13-.71-.13-.34,0-.61.09-.8.28-.19.19-.28.45-.28.8v1.78h-.58v-3.29h.47l.07.6h.02c.16-.24.33-.41.52-.51.18-.1.41-.15.68-.15.25,0,.5.04.76.13Z"/>
    <path class="cls-3" d="m33.04,56.93h-2.45c.02.75.38,1.12,1.09,1.12.41,0,.8-.08,1.17-.23v.48c-.35.15-.73.22-1.15.22-.52,0-.93-.15-1.24-.45s-.46-.71-.46-1.23.14-.95.43-1.26c.29-.31.67-.47,1.15-.47.45,0,.8.13,1.07.4.27.27.4.62.4,1.07v.34Zm-2.44-.44h1.81c0-.61-.29-.92-.86-.92s-.9.3-.95.92Z"/>
    <path class="cls-3" d="m36.54,54.08l-1.98,4.39h-.56l1.98-4.39h.56Z"/>
    <path class="cls-3" d="m37.53,58.32v-.53c.45.17.88.26,1.31.26.74,0,1.11-.24,1.11-.72,0-.21-.07-.37-.22-.48-.15-.11-.45-.25-.9-.4-.44-.15-.75-.32-.94-.52s-.29-.47-.29-.79c0-.35.14-.62.41-.82.27-.2.64-.29,1.12-.29s.92.08,1.32.23l-.2.49c-.41-.16-.79-.23-1.14-.23-.62,0-.93.21-.93.63,0,.2.07.37.21.49s.42.26.86.4c.52.18.87.36,1.04.54.17.19.26.43.26.72,0,.38-.15.69-.44.9s-.71.33-1.24.33-1-.07-1.31-.21Z"/>
    <path class="cls-3" d="m41.09,55.17h.59l.83,1.96c.17.41.27.7.28.87h.02c.05-.22.14-.52.28-.88l.76-1.96h.6l-1.5,3.72c-.14.35-.31.61-.49.79-.19.17-.45.26-.78.26-.18,0-.36-.02-.53-.05v-.43c.13.02.27.04.43.04.2,0,.36-.04.47-.12s.21-.22.3-.42l.18-.45-1.45-3.32Z"/>
    <path class="cls-3" d="m45.23,58.32v-.5c.41.17.8.26,1.17.26.58,0,.87-.16.87-.49,0-.11-.05-.21-.16-.3-.1-.08-.34-.19-.71-.32-.49-.17-.8-.33-.93-.48-.13-.14-.19-.32-.19-.51,0-.27.12-.49.35-.64.24-.15.56-.23.98-.23s.81.07,1.17.22l-.19.45c-.38-.14-.72-.22-1.01-.22-.5,0-.75.13-.75.4,0,.12.05.22.16.29.11.07.35.17.74.3.45.15.74.31.89.46.15.15.22.33.22.55,0,.3-.12.54-.37.71s-.6.26-1.05.26c-.52,0-.92-.07-1.19-.21Z"/>
    <path class="cls-3" d="m51.56,58.02v.41c-.27.06-.54.1-.8.1-.76,0-1.15-.34-1.15-1.03v-1.91h-.84v-.28l.84-.15.24-.86h.33v.88h1.39v.41h-1.39v1.91c0,.39.2.58.61.58.2,0,.45-.02.76-.06Z"/>
    <path class="cls-3" d="m55.56,56.93h-2.45c.02.75.38,1.12,1.09,1.12.41,0,.8-.08,1.17-.23v.48c-.35.15-.73.22-1.15.22-.52,0-.93-.15-1.24-.45s-.46-.71-.46-1.23.14-.95.43-1.26c.29-.31.67-.47,1.15-.47.45,0,.8.13,1.07.4.27.27.4.62.4,1.07v.34Zm-2.44-.44h1.81c0-.61-.29-.92-.86-.92s-.9.3-.95.92Z"/>
    <path class="cls-3" d="m58.93,58.47v-2.12c0-.29-.03-.5-.08-.61-.06-.11-.15-.17-.28-.17-.18,0-.32.08-.4.25s-.12.44-.12.83v1.82h-.51v-2.12c0-.52-.13-.78-.4-.78-.18,0-.3.08-.38.24-.08.16-.11.48-.11.96v1.71h-.51v-3.29h.4l.09.44h.03c.14-.34.35-.5.64-.5.34,0,.57.18.67.55h.02c.16-.36.39-.55.69-.55.27,0,.47.09.59.28.12.19.18.49.18.93v2.15h-.51Z"/>
    <path class="cls-3" d="m66.69,58.47h-2.66v-4.39h2.66v.49h-2.08v1.36h1.95v.49h-1.95v1.56h2.08v.49Z"/>
    <path class="cls-3" d="m69.9,58.47v-2.12c0-.52-.25-.78-.75-.78-.65,0-.97.4-.97,1.19v1.71h-.58v-3.29h.46l.09.44h.03c.22-.34.57-.5,1.06-.5.82,0,1.23.4,1.23,1.2v2.15h-.58Z"/>
    <path class="cls-3" d="m74.41,55.17v.34l-.62.08c.14.17.21.38.21.64,0,.32-.11.58-.34.77-.22.19-.54.29-.94.29-.12,0-.21,0-.27-.02-.21.11-.32.25-.32.4,0,.17.17.25.51.25h.59c.37,0,.65.08.84.23.19.15.29.37.29.66,0,.75-.6,1.13-1.79,1.13-.46,0-.81-.08-1.05-.24s-.36-.39-.36-.68c0-.42.25-.69.76-.81-.2-.09-.3-.25-.3-.46,0-.22.14-.42.42-.58-.19-.07-.33-.2-.44-.37-.11-.17-.16-.36-.16-.56,0-.36.11-.64.34-.84s.54-.3.96-.3c.18,0,.34.02.47.06h1.2Zm-1.37,3.24h-.59c-.48,0-.73.2-.73.59,0,.35.29.52.86.52.83,0,1.25-.22,1.25-.67,0-.18-.05-.29-.16-.36-.11-.06-.31-.09-.63-.09Zm-.31-1.5c.47,0,.71-.23.71-.69s-.24-.72-.71-.72-.71.24-.71.73c0,.45.24.68.72.68Z"/>
    <path class="cls-3" d="m76.31,55.61l-.85-.06v-.37h1.43v2.87l1.11.06v.37h-2.78v-.37l1.09-.06v-2.43Zm.29-1.79c.22,0,.34.11.34.34,0,.12-.03.2-.1.26s-.15.08-.24.08c-.23,0-.34-.11-.34-.34s.11-.34.34-.34Z"/>
    <path class="cls-3" d="m81.16,58.47v-2.12c0-.52-.25-.78-.75-.78-.65,0-.97.4-.97,1.19v1.71h-.58v-3.29h.46l.09.44h.03c.22-.34.57-.5,1.06-.5.82,0,1.23.4,1.23,1.2v2.15h-.58Z"/>
    <path class="cls-3" d="m85.57,56.93h-2.45c.02.75.38,1.12,1.09,1.12.41,0,.8-.08,1.17-.23v.48c-.35.15-.73.22-1.15.22-.52,0-.93-.15-1.24-.45s-.46-.71-.46-1.23.14-.95.43-1.26c.29-.31.67-.47,1.15-.47.45,0,.8.13,1.07.4.27.27.4.62.4,1.07v.34Zm-2.44-.44h1.81c0-.61-.29-.92-.86-.92s-.9.3-.95.92Z"/>
    <path class="cls-3" d="m89.32,56.93h-2.45c.02.75.38,1.12,1.09,1.12.41,0,.8-.08,1.17-.23v.48c-.35.15-.73.22-1.15.22-.52,0-.93-.15-1.24-.45s-.46-.71-.46-1.23.14-.95.43-1.26c.29-.31.67-.47,1.15-.47.45,0,.8.13,1.07.4.27.27.4.62.4,1.07v.34Zm-2.44-.44h1.81c0-.61-.29-.92-.86-.92s-.9.3-.95.92Z"/>
    <path class="cls-3" d="m92.95,55.25l-.15.5c-.26-.09-.5-.13-.71-.13-.34,0-.61.09-.8.28-.19.19-.28.45-.28.8v1.78h-.58v-3.29h.47l.07.6h.03c.16-.24.33-.41.52-.51.18-.1.41-.15.68-.15.25,0,.5.04.76.13Z"/>
    <path class="cls-3" d="m95.07,55.61l-.85-.06v-.37h1.43v2.87l1.11.06v.37h-2.78v-.37l1.09-.06v-2.43Zm.29-1.79c.22,0,.34.11.34.34,0,.12-.03.2-.1.26s-.15.08-.24.08c-.23,0-.34-.11-.34-.34s.11-.34.34-.34Z"/>
    <path class="cls-3" d="m99.91,58.47v-2.12c0-.52-.25-.78-.75-.78-.65,0-.97.4-.97,1.19v1.71h-.58v-3.29h.46l.09.44h.03c.22-.34.57-.5,1.06-.5.82,0,1.23.4,1.23,1.2v2.15h-.58Z"/>
    <path class="cls-3" d="m104.42,55.17v.34l-.62.08c.14.17.21.38.21.64,0,.32-.11.58-.34.77-.22.19-.54.29-.94.29-.12,0-.21,0-.27-.02-.21.11-.32.25-.32.4,0,.17.17.25.51.25h.59c.37,0,.65.08.84.23.19.15.29.37.29.66,0,.75-.6,1.13-1.79,1.13-.46,0-.81-.08-1.05-.24s-.36-.39-.36-.68c0-.42.25-.69.76-.81-.2-.09-.3-.25-.3-.46,0-.22.14-.42.42-.58-.19-.07-.34-.2-.44-.37-.11-.17-.16-.36-.16-.56,0-.36.11-.64.34-.84s.54-.3.96-.3c.18,0,.34.02.47.06h1.2Zm-1.37,3.24h-.59c-.49,0-.73.2-.73.59,0,.35.29.52.86.52.83,0,1.25-.22,1.25-.67,0-.18-.05-.29-.16-.36-.11-.06-.31-.09-.63-.09Zm-.31-1.5c.47,0,.71-.23.71-.69s-.24-.72-.71-.72-.71.24-.71.73c0,.45.24.68.72.68Z"/>
    <path class="cls-3" d="m111.92,57.87v.49c-.31.12-.69.18-1.13.18-.65,0-1.15-.2-1.5-.59-.35-.39-.52-.95-.52-1.67s.19-1.24.57-1.64c.38-.4.89-.61,1.55-.61.46,0,.87.09,1.21.26l-.25.47c-.33-.16-.65-.23-.96-.23-.45,0-.82.16-1.08.48-.27.32-.41.75-.41,1.29,0,.57.13,1.01.38,1.31.25.3.62.45,1.11.45.27,0,.62-.06,1.03-.17Z"/>
    <path class="cls-3" d="m114.04,58.53c-.46,0-.83-.16-1.12-.47-.29-.31-.44-.73-.44-1.25s.14-.94.43-1.25c.29-.3.67-.46,1.16-.46s.84.16,1.13.46c.29.31.44.72.44,1.24s-.14.95-.43,1.25c-.29.31-.67.46-1.15.46Zm.01-.45c.65,0,.98-.42.98-1.26s-.33-1.25-.99-1.25-.98.42-.98,1.25.33,1.26.98,1.26Z"/>
    <path class="cls-3" d="m118.96,58.47v-2.12c0-.29-.03-.5-.08-.61s-.15-.17-.28-.17c-.18,0-.32.08-.4.25-.08.17-.12.44-.12.83v1.82h-.51v-2.12c0-.52-.13-.78-.4-.78-.18,0-.3.08-.38.24-.08.16-.11.48-.11.96v1.71h-.51v-3.29h.4l.09.44h.03c.14-.34.35-.5.64-.5.34,0,.57.18.67.55h.02c.16-.36.39-.55.69-.55.27,0,.47.09.59.28.12.19.18.49.18.93v2.15h-.51Z"/>
    <path class="cls-3" d="m122.71,58.47v-2.12c0-.29-.03-.5-.08-.61s-.15-.17-.28-.17c-.18,0-.32.08-.4.25-.08.17-.12.44-.12.83v1.82h-.51v-2.12c0-.52-.13-.78-.4-.78-.18,0-.3.08-.38.24-.08.16-.11.48-.11.96v1.71h-.51v-3.29h.4l.09.44h.03c.14-.34.35-.5.64-.5.34,0,.57.18.67.55h.02c.16-.36.39-.55.69-.55.27,0,.47.09.59.28.12.19.18.49.18.93v2.15h-.51Z"/>
    <path class="cls-3" d="m126.29,58.47l-.09-.44h-.03c-.22.33-.57.5-1.06.5-.83,0-1.24-.4-1.24-1.2v-2.15h.58v2.12c0,.52.25.78.75.78.34,0,.59-.09.74-.28.16-.18.23-.49.23-.91v-1.71h.58v3.29h-.46Z"/>
    <path class="cls-3" d="m129.93,58.47v-2.12c0-.52-.25-.78-.75-.78-.65,0-.97.4-.97,1.19v1.71h-.58v-3.29h.46l.09.44h.03c.22-.34.57-.5,1.06-.5.82,0,1.23.4,1.23,1.2v2.15h-.58Z"/>
    <path class="cls-3" d="m132.58,55.61l-.85-.06v-.37h1.43v2.87l1.11.06v.37h-2.78v-.37l1.09-.06v-2.43Zm.29-1.79c.22,0,.34.11.34.34,0,.12-.03.2-.1.26s-.15.08-.24.08c-.23,0-.34-.11-.34-.34s.11-.34.34-.34Z"/>
    <path class="cls-3" d="m137.85,58.02v.41c-.27.06-.54.1-.8.1-.76,0-1.15-.34-1.15-1.03v-1.91h-.84v-.28l.84-.15.24-.86h.33v.88h1.38v.41h-1.38v1.91c0,.39.2.58.61.58.2,0,.45-.02.76-.06Z"/>
    <path class="cls-3" d="m138.64,55.17h.59l.83,1.96c.17.41.27.7.28.87h.02c.05-.22.14-.52.29-.88l.76-1.96h.6l-1.5,3.72c-.14.35-.31.61-.49.79-.19.17-.45.26-.78.26-.18,0-.36-.02-.53-.05v-.43c.13.02.27.04.43.04.2,0,.36-.04.47-.12.11-.08.21-.22.3-.42l.18-.45-1.45-3.32Z"/>
    <path class="cls-3" d="m143.02,58.64l-.31-.31,2.05-1.44-2.05-1.4.31-.33,2.42,1.72-2.42,1.75Z"/>
  </g>
  <path class="cls-1" d="m65.29,10.5c-.59,0-1.14-.13-1.65-.35l-5.2,10.19h6.82v6.69h-10.23l-4.26,8.36c.54.32,1.01.75,1.35,1.27l18.16-10.48c-.28-.55-.45-1.17-.45-1.83,0-1.54.86-2.87,2.12-3.58l-5.1-10.57c-.48.2-1.01.31-1.56.31Z"/>
  <polygon class="cls-1" points="48.4 9.63 48.4 11.45 54.14 9.63 48.4 9.63"/>
  <path class="cls-1" d="m62.79,9.63h-7l-7.4,2.34v8.37h9.49l5.32-10.43c-.14-.09-.28-.18-.41-.28Z"/>
  <path class="cls-1" d="m48.4,27.03v7.8c.1,0,.19-.03.29-.03.59,0,1.14.13,1.65.35l4.14-8.12h-6.08Z"/>
  <path class="cls-1" d="m24.92,20.42c0,.62-.15,1.21-.4,1.74.24.12.49.23.73.36,1.26.66,2.39,1.46,3.39,2.41.34.33.66.68.95,1.04l10.56,7.01V14.57l-15.38,4.86c.08.32.14.65.14,1Z"/>
  <path class="cls-1" d="m31.05,28.27c.6,1.28.91,2.81.91,4.56,0,2.35-.43,4.39-1.3,6.13-.1.19-.21.37-.32.55l9.83-.45v-5.49l-9.75-6.47c.23.37.45.76.64,1.16Z"/>
  <path class="cls-1" d="m67.3,9.96l5.1,10.57c.48-.2,1.01-.31,1.56-.31.08,0,.16.02.25.03.23-1.75.58-3.4,1.08-4.93.48-1.47,1.07-2.81,1.77-4.04l-8.03-3.16c-.37.78-.97,1.42-1.72,1.84Z"/>
  <path class="cls-1" d="m136.47,30.84c.33-1.83.49-3.94.49-6.31,0-.48-.01-.95-.02-1.41l-5.87-13.3c-.86-.29-1.81-.45-2.87-.45-1.56,0-2.89.32-3.99.97-1.1.65-2,1.6-2.72,2.85-.71,1.25-1.24,2.8-1.57,4.63-.33,1.83-.49,3.94-.49,6.31,0,1.16.04,2.25.11,3.28l16.19,6.23c.3-.85.55-1.77.74-2.8Z"/>
  <path class="cls-1" d="m119.59,27.96c.27,3.21.9,5.74,1.91,7.57,1.37,2.5,3.61,3.76,6.7,3.76,1.56,0,2.89-.32,4-.97,1.11-.65,2.02-1.6,2.72-2.85.23-.42.44-.88.63-1.36l-15.96-6.15Z"/>
  <path class="cls-1" d="m134.92,13.13c-.78-1.43-1.85-2.43-3.19-3.04l5.15,11.67c-.21-3.71-.86-6.6-1.96-8.62Z"/>
  <path class="cls-1" d="m83.46,18.28c-.42,1.77-.64,3.71-.65,5.81h23.99c.02-.35.09-.69.2-1.02l-22.01-8.67c-.66,1.14-1.17,2.43-1.52,3.88Z"/>
  <path class="cls-3" d="m4.74,37.87c.16.05.32.08.48.13l9.47-10.47c-.17-.06-.34-.12-.51-.19l-9.5,10.5s.01.01.02.02c.01,0,.02,0,.03.01Z"/>
  <path class="cls-3" d="m30.41,27.1l9.75,6.47v-.6l-10.56-7.01c.29.36.56.74.81,1.14Z"/>
  <path class="cls-3" d="m54.48,27.03l-4.14,8.12c.15.07.3.15.44.24l4.26-8.36h-.56Z"/>
  <path class="cls-3" d="m63.21,9.91l-5.32,10.43h.56l5.2-10.19c-.15-.07-.3-.15-.44-.24Z"/>
  <path class="cls-3" d="m66.85,10.19l5.1,10.57c.15-.08.29-.17.44-.23l-5.1-10.57c-.15.08-.29.17-.44.23Z"/>
  <path class="cls-3" d="m106.79,24.09h-23.99c0,.08,0,.16,0,.24,0,.09,0,.17,0,.26h23.99c0-.08-.03-.16-.03-.25s.02-.17.03-.25Z"/>
  <path class="cls-3" d="m135.73,33.64l-16.19-6.23c.01.19.03.37.04.55l15.96,6.15c.06-.15.12-.31.18-.47Z"/>
  <path class="cls-3" d="m136.88,21.75l-5.15-11.67c-.21-.1-.43-.19-.66-.27l5.87,13.3c-.01-.47-.03-.92-.06-1.37Z"/>
  <path class="cls-3" d="m30.34,39.51c-.1.17-.19.35-.3.51l10.12-.46v-.5l-9.83.45Z"/>
  <path class="cls-3" d="m52.13,36.65c.09.14.16.29.24.44l18.16-10.48c-.09-.14-.16-.29-.24-.44l-18.16,10.48Z"/>
  <path class="cls-3" d="m106.99,23.07c.05-.16.11-.32.18-.47l-21.92-8.64c-.09.14-.18.28-.27.43l22.01,8.67Z"/>
  <path class="cls-3" d="m77.05,11.28c.08-.15.18-.29.27-.43l-8.12-3.2c-.05.16-.11.32-.18.47l8.03,3.16Z"/>
  <polygon class="cls-3" points="54.14 9.63 48.4 11.45 48.4 11.97 55.8 9.63 54.14 9.63"/>
  <path class="cls-3" d="m40.16,14.57v-.52l-15.53,4.9c.06.15.11.31.15.48l15.38-4.86Z"/>
  <path class="cls-2" d="m30.66,38.96c.87-1.74,1.3-3.78,1.3-6.13,0-1.76-.3-3.28-.91-4.56-.19-.41-.41-.79-.64-1.16-.25-.4-.52-.78-.81-1.14-.3-.37-.61-.72-.95-1.04-1-.94-2.13-1.75-3.39-2.41-.24-.13-.49-.24-.73-.36-.66,1.41-2.08,2.39-3.73,2.39-2.27,0-4.12-1.85-4.12-4.12,0-.47.1-.92.24-1.34-1.03-.39-1.98-.79-2.83-1.23-1-.52-1.8-1.1-2.41-1.75-.6-.65-.91-1.42-.91-2.32,0-.73.14-1.38.43-1.98.29-.59.75-1.09,1.38-1.5.64-.41,1.45-.72,2.44-.96s2.2-.35,3.62-.35c.81,0,1.67.04,2.57.13.9.09,1.8.21,2.69.38.89.16,1.75.36,2.59.58s1.6.46,2.31.72V3.41c-.7-.18-1.48-.35-2.32-.51-.85-.17-1.72-.31-2.64-.43-.91-.12-1.83-.22-2.77-.3-.93-.08-1.83-.12-2.69-.12-2.92,0-5.41.33-7.48,1-2.06.67-3.76,1.57-5.07,2.7-1.32,1.13-2.28,2.46-2.9,3.97-.62,1.52-.92,3.12-.92,4.81,0,1.84.3,3.42.91,4.73.6,1.31,1.4,2.43,2.39,3.38.99.95,2.11,1.74,3.38,2.37,1.26.64,2.55,1.21,3.85,1.71.56.22,1.1.4,1.66.61.17.06.34.12.51.19.56.21,1.14.43,1.69.62,1.26.44,2.39.93,3.38,1.48.99.55,1.78,1.18,2.39,1.89s.91,1.6.91,2.65c0,.77-.15,1.47-.46,2.11-.31.64-.8,1.19-1.48,1.65-.68.46-1.56.82-2.64,1.09-1.08.26-2.38.4-3.92.4-1.03,0-2.1-.07-3.2-.2-1.1-.13-2.2-.31-3.31-.54-.95-.2-1.89-.43-2.83-.68-.16-.04-.32-.08-.48-.13-.01,0-.02,0-.03-.01.93.76,1.54,1.9,1.54,3.19,0,2.15-1.66,3.9-3.77,4.09,1.77.48,3.55.84,5.36,1.07,2.11.26,4.29.4,6.56.4,2.55,0,4.9-.28,7.05-.82,2.15-.55,4.01-1.39,5.57-2.52,1.22-.89,2.23-1.97,3.03-3.23.11-.17.2-.34.3-.51.11-.19.22-.36.32-.55Z"/>
  <path class="cls-2" d="m48.69,43.05c-2.27,0-4.12-1.85-4.12-4.12s1.7-3.94,3.84-4.1v-7.8h16.87v-6.69h-16.87v-10.71h14.39c-.98-.75-1.63-1.93-1.63-3.26,0-1.55.87-2.89,2.14-3.59h-23.14v43.06h25.93v-6.85h-13.28c-.04,2.24-1.87,4.06-4.12,4.06Z"/>
  <path class="cls-2" d="m82.8,24.09c.02-2.1.23-4.04.65-5.81.35-1.46.86-2.75,1.52-3.88.09-.15.18-.29.27-.43.09-.14.17-.29.27-.43.93-1.33,2.13-2.36,3.57-3.1,1.45-.74,3.2-1.1,5.24-1.1,1.38,0,2.92.19,4.61.56,1.69.37,3.47,1,5.34,1.88V3.74c-.92-.31-1.81-.56-2.67-.76-.86-.2-1.7-.36-2.54-.48-.83-.12-1.69-.2-2.55-.25-.87-.04-1.8-.07-2.78-.07-3.05,0-5.8.51-8.25,1.53-2.45,1.02-4.53,2.5-6.24,4.45-.71.81-1.34,1.71-1.92,2.68-.09.15-.18.28-.27.43-.69,1.23-1.29,2.57-1.77,4.04-.5,1.52-.85,3.17-1.08,4.93,2.16.13,3.88,1.91,3.88,4.1s-1.79,4.05-4.01,4.11c.19,2.13.55,4.09,1.1,5.84.85,2.67,2.09,4.9,3.72,6.7,1.64,1.8,3.65,3.16,6.03,4.07,2.38.91,5.12,1.37,8.22,1.37,1.93,0,3.79-.19,5.58-.56,1.79-.37,3.64-.94,5.55-1.71v-7.58c-.73.33-1.51.65-2.36.97s-1.7.59-2.57.82-1.72.42-2.57.56c-.85.14-1.63.21-2.36.21-2.02,0-3.77-.33-5.24-1-1.47-.67-2.68-1.64-3.62-2.92-.94-1.27-1.64-2.83-2.09-4.66-.43-1.76-.65-3.76-.67-5.98,0-.09,0-.17,0-.26,0-.08,0-.16,0-.24Z"/>
  <path class="cls-2" d="m139.13,36.8c0-2.27,1.85-4.12,4.12-4.12.45,0,.87.09,1.27.22.66-2.54,1-5.45,1-8.77,0-7.2-1.43-12.68-4.28-16.44-2.22-2.92-5.29-4.68-9.2-5.34-.12,2.17-1.91,3.9-4.1,3.9s-3.82-1.58-4.07-3.61c-.77.2-1.54.43-2.28.73-2.14.88-4.01,2.23-5.6,4.05-1.59,1.82-2.84,4.15-3.76,6.99-.56,1.73-.92,3.69-1.14,5.83,2.18.11,3.92,1.9,3.92,4.1s-1.77,4.03-3.98,4.11c.44,5.28,1.8,9.45,4.11,12.5,2.86,3.77,7.12,5.65,12.78,5.65,2.44,0,4.73-.44,6.87-1.32,2.14-.88,4.01-2.23,5.6-4.05.25-.29.48-.61.71-.92-1.19-.72-1.99-2.02-1.99-3.51Zm-6.93,1.52c-1.11.65-2.44.97-4,.97-3.1,0-5.33-1.25-6.7-3.76-1-1.83-1.64-4.36-1.91-7.57-.02-.18-.03-.37-.04-.55-.07-1.03-.11-2.11-.11-3.28,0-2.37.17-4.47.49-6.31.33-1.83.85-3.38,1.57-4.63.71-1.25,1.62-2.2,2.72-2.85,1.1-.65,2.43-.97,3.99-.97,1.06,0,2.01.16,2.87.45.23.08.45.17.66.27,1.34.61,2.42,1.62,3.19,3.04,1.1,2.02,1.75,4.91,1.96,8.62.03.45.05.9.06,1.37.01.46.02.92.02,1.41,0,2.37-.17,4.48-.49,6.31-.18,1.03-.43,1.96-.74,2.8-.06.16-.12.31-.18.47-.19.48-.4.94-.63,1.36-.7,1.25-1.61,2.2-2.72,2.85Z"/>
  <circle class="cls-3" cx="143.25" cy="36.8" r="2.12"/>
  <circle class="cls-3" cx="110.89" cy="24.34" r="2.12"/>
  <circle class="cls-3" cx="73.96" cy="24.34" r="2.12"/>
  <circle class="cls-3" cx="2.12" cy="41.05" r="2.12"/>
  <circle class="cls-3" cx="20.79" cy="20.42" r="2.12"/>
  <circle class="cls-3" cx="48.69" cy="38.92" r="2.12"/>
  <circle class="cls-3" cx="65.29" cy="6.38" r="2.12"/>
  <circle class="cls-3" cx="127.94" cy="2.12" r="2.12"/>
</svg>